<svg width="132" height="166" viewBox="0 0 132 166" fill="none" xmlns="http://www.w3.org/2000/svg">
<g filter="url(#filter0_bii_326_1639)">
<path d="M70.4764 23.1428C74.802 14.192 85.5646 10.4426 94.5153 14.7682L114 24.1843C122.95 28.5099 126.7 39.2725 122.374 48.2232L98.9523 96.6891L47.0545 71.6087L70.4764 23.1428Z" fill="url(#paint0_linear_326_1639)" fill-opacity="0.3"/>
</g>
<g filter="url(#filter1_f_326_1639)">
<path fill-rule="evenodd" clip-rule="evenodd" d="M91.7045 18.4671C86.6145 16.0073 80.4942 18.1394 78.0344 23.2294L61.0724 58.328L62.3486 58.9447L78.9374 24.6184C81.5517 19.2086 88.0566 16.9425 93.4663 19.5568C93.4768 19.5619 93.4873 19.567 93.4977 19.5721C92.95 19.1511 92.3511 18.7796 91.7045 18.4671Z" fill="#D8F7F2"/>
</g>
<g filter="url(#filter2_ii_326_1639)">
<path d="M21.7765 121.664C17.4509 130.615 21.2003 141.377 30.151 145.703L51.5605 156.049C60.5113 160.375 71.2738 156.625 75.5994 147.675L98.8753 99.5109C99.5963 98.0191 98.9714 96.2253 97.4796 95.5044L49.0589 72.1043C47.5671 71.3834 45.7734 72.0083 45.0524 73.5001L21.7765 121.664Z" fill="url(#paint1_linear_326_1639)"/>
</g>
<g filter="url(#filter3_i_326_1639)">
<path d="M66.6832 98.6736L68.2246 99.4185L65.9066 104.216L64.3651 103.471L66.6832 98.6736ZM67.7574 94.5014L67.2631 95.5243L70.4901 97.0836L70.9844 96.0607L67.7574 94.5014ZM66.8638 92.4526L73.217 95.5225L71.4558 99.1673L65.1026 96.0974L66.8638 92.4526ZM64.0616 96.3762L71.769 100.1L68.5947 106.67L66.9379 105.869L69.444 100.683L64.9924 98.5319L62.4794 103.733L60.8803 102.96L64.0616 96.3762ZM63.8489 99.17L69.8419 102.066L69.2224 103.348L63.2294 100.452L63.8489 99.17ZM62.7634 101.453L68.7565 104.349L68.0882 105.732L62.0952 102.836L62.7634 101.453ZM67.0455 90.017L74.8825 93.8039L74.1795 95.259L66.3424 91.4721L67.0455 90.017ZM60.9358 89.6059L65.2433 91.6873L64.4915 93.2432L60.184 91.1618L60.9358 89.6059ZM63.9454 87.7905L65.631 88.605L63.9951 91.9905L62.3096 91.176L63.9454 87.7905ZM62.8797 94.7034C63.1577 95.1576 63.8751 96.8725 64.0384 97.3068L62.3617 98.2026C62.2144 97.3673 61.7569 95.8135 61.5177 95.0581L62.8797 94.7034ZM64.6094 91.381L64.9552 91.5481L65.2711 91.6297L65.9296 92.6942C63.5851 95.0087 60.3505 96.591 57.7011 96.999C57.7798 96.4684 57.7797 95.4021 57.6735 94.9599C59.9964 94.7495 62.734 93.4602 64.4563 91.698L64.6094 91.381ZM60.2838 95.3682L62.9509 94.1514L59.1014 102.118L57.4158 101.304L60.2838 95.3682Z" fill="#FFD913" fill-opacity="0.8"/>
</g>
<g filter="url(#filter4_f_326_1639)">
<path fill-rule="evenodd" clip-rule="evenodd" d="M43.0375 145.751C33.8254 142.894 29.6678 133.591 33.749 124.719L52.859 83.178L51.1955 82.7151C49.5998 82.2712 47.7447 83.1323 47.052 84.6385L29.2029 123.445C25.0464 132.482 29.438 141.967 39.0117 144.631L43.0375 145.751Z" fill="#FF6969"/>
</g>
<defs>
<filter id="filter0_bii_326_1639" x="44.5747" y="11.4707" width="81.0972" height="87.6983" filterUnits="userSpaceOnUse" color-interpolation-filters="sRGB">
<feFlood flood-opacity="0" result="BackgroundImageFix"/>
<feGaussianBlur in="BackgroundImageFix" stdDeviation="0.75"/>
<feComposite in2="SourceAlpha" operator="in" result="effect1_backgroundBlur_326_1639"/>
<feBlend mode="normal" in="SourceGraphic" in2="effect1_backgroundBlur_326_1639" result="shape"/>
<feColorMatrix in="SourceAlpha" type="matrix" values="0 0 0 0 0 0 0 0 0 0 0 0 0 0 0 0 0 0 127 0" result="hardAlpha"/>
<feOffset dx="-2.48" dy="2.48"/>
<feGaussianBlur stdDeviation="6"/>
<feComposite in2="hardAlpha" operator="arithmetic" k2="-1" k3="1"/>
<feColorMatrix type="matrix" values="0 0 0 0 0.923223 0 0 0 0 0.818143 0 0 0 0 0.818143 0 0 0 0.5 0"/>
<feBlend mode="normal" in2="shape" result="effect2_innerShadow_326_1639"/>
<feColorMatrix in="SourceAlpha" type="matrix" values="0 0 0 0 0 0 0 0 0 0 0 0 0 0 0 0 0 0 127 0" result="hardAlpha"/>
<feOffset dx="1.5" dy="-1.48"/>
<feGaussianBlur stdDeviation="6"/>
<feComposite in2="hardAlpha" operator="arithmetic" k2="-1" k3="1"/>
<feColorMatrix type="matrix" values="0 0 0 0 0 0 0 0 0 0 0 0 0 0 0 0 0 0 0.15 0"/>
<feBlend mode="normal" in2="effect2_innerShadow_326_1639" result="effect3_innerShadow_326_1639"/>
</filter>
<filter id="filter1_f_326_1639" x="56.0723" y="12.4448" width="42.4253" height="51.5" filterUnits="userSpaceOnUse" color-interpolation-filters="sRGB">
<feFlood flood-opacity="0" result="BackgroundImageFix"/>
<feBlend mode="normal" in="SourceGraphic" in2="BackgroundImageFix" result="shape"/>
<feGaussianBlur stdDeviation="2.5" result="effect1_foregroundBlur_326_1639"/>
</filter>
<filter id="filter2_ii_326_1639" x="10.2457" y="62.0714" width="98.6625" height="105.509" filterUnits="userSpaceOnUse" color-interpolation-filters="sRGB">
<feFlood flood-opacity="0" result="BackgroundImageFix"/>
<feBlend mode="normal" in="SourceGraphic" in2="BackgroundImageFix" result="shape"/>
<feColorMatrix in="SourceAlpha" type="matrix" values="0 0 0 0 0 0 0 0 0 0 0 0 0 0 0 0 0 0 127 0" result="hardAlpha"/>
<feOffset dx="-9.73333" dy="9.73333"/>
<feGaussianBlur stdDeviation="4.86667"/>
<feComposite in2="hardAlpha" operator="arithmetic" k2="-1" k3="1"/>
<feColorMatrix type="matrix" values="0 0 0 0 1 0 0 0 0 1 0 0 0 0 1 0 0 0 0.1 0"/>
<feBlend mode="normal" in2="shape" result="effect1_innerShadow_326_1639"/>
<feColorMatrix in="SourceAlpha" type="matrix" values="0 0 0 0 0 0 0 0 0 0 0 0 0 0 0 0 0 0 127 0" result="hardAlpha"/>
<feOffset dx="9.73333" dy="-9.73333"/>
<feGaussianBlur stdDeviation="8.7"/>
<feComposite in2="hardAlpha" operator="arithmetic" k2="-1" k3="1"/>
<feColorMatrix type="matrix" values="0 0 0 0 0.659951 0 0 0 0 0 0 0 0 0 0 0 0 0 1 0"/>
<feBlend mode="normal" in2="effect1_innerShadow_326_1639" result="effect2_innerShadow_326_1639"/>
</filter>
<filter id="filter3_i_326_1639" x="55.1396" y="86.6904" width="20.0283" height="24.0361" filterUnits="userSpaceOnUse" color-interpolation-filters="sRGB">
<feFlood flood-opacity="0" result="BackgroundImageFix"/>
<feBlend mode="normal" in="SourceGraphic" in2="BackgroundImageFix" result="shape"/>
<feColorMatrix in="SourceAlpha" type="matrix" values="0 0 0 0 0 0 0 0 0 0 0 0 0 0 0 0 0 0 127 0" result="hardAlpha"/>
<feOffset dy="4"/>
<feGaussianBlur stdDeviation="2.2"/>
<feComposite in2="hardAlpha" operator="arithmetic" k2="-1" k3="1"/>
<feColorMatrix type="matrix" values="0 0 0 0 0 0 0 0 0 0 0 0 0 0 0 0 0 0 0.25 0"/>
<feBlend mode="normal" in2="shape" result="effect1_innerShadow_326_1639"/>
</filter>
<filter id="filter4_f_326_1639" x="20.6348" y="75.5986" width="39.2241" height="77.1519" filterUnits="userSpaceOnUse" color-interpolation-filters="sRGB">
<feFlood flood-opacity="0" result="BackgroundImageFix"/>
<feBlend mode="normal" in="SourceGraphic" in2="BackgroundImageFix" result="shape"/>
<feGaussianBlur stdDeviation="3.5" result="effect1_foregroundBlur_326_1639"/>
</filter>
<linearGradient id="paint0_linear_326_1639" x1="52.8672" y1="40.3247" x2="122.367" y2="73.8247" gradientUnits="userSpaceOnUse">
<stop stop-color="#FF4BA2"/>
<stop offset="0.34375" stop-color="#0DD1FC" stop-opacity="0.8"/>
<stop offset="0.557292" stop-color="#3AFF4E" stop-opacity="0.5"/>
<stop offset="0.803263" stop-color="#FAFF00"/>
</linearGradient>
<linearGradient id="paint1_linear_326_1639" x1="33.7927" y1="138.014" x2="116.578" y2="85.0716" gradientUnits="userSpaceOnUse">
<stop stop-color="#FF0000"/>
<stop offset="0.484375" stop-color="#FF0000"/>
<stop offset="1" stop-color="#FF0000"/>
</linearGradient>
</defs>
</svg>
