<svg width="155" height="185" viewBox="0 0 155 185" fill="none" xmlns="http://www.w3.org/2000/svg">
<g filter="url(#filter0_bii_326_1680)">
<path d="M92.8885 30.5185C100.018 23.5904 111.414 23.7536 118.342 30.883L133.423 46.4026C140.351 53.532 140.188 64.9278 133.058 71.8559L94.4546 109.369L54.2846 68.0321L92.8885 30.5185Z" fill="url(#paint0_linear_326_1680)" fill-opacity="0.3"/>
</g>
<g filter="url(#filter1_f_326_1680)">
<path fill-rule="evenodd" clip-rule="evenodd" d="M114.434 33.3956C110.494 29.3413 104.014 29.2485 99.9594 33.1883L72.0029 60.3553L72.9907 61.3718L100.332 34.8025C104.641 30.6152 111.529 30.7138 115.716 35.0228C115.724 35.0312 115.732 35.0395 115.74 35.0479C115.37 34.4647 114.934 33.9106 114.434 33.3956Z" fill="#D8F7F2"/>
</g>
<g filter="url(#filter2_ii_326_1680)">
<path d="M25.1214 133.698C21.3491 142.896 25.7471 153.41 34.9447 157.182L56.9447 166.206C66.1423 169.978 76.6565 165.58 80.4288 156.382L100.728 106.89C101.356 105.357 100.623 103.605 99.0904 102.976L49.3342 82.5689C47.8013 81.9402 46.0489 82.6732 45.4202 84.2061L25.1214 133.698Z" fill="url(#paint1_linear_326_1680)"/>
</g>
<g filter="url(#filter3_i_326_1680)">
<path d="M68.712 106.852L70.2979 107.497L68.2908 112.433L66.7049 111.788L68.712 106.852ZM69.5177 102.62L69.0898 103.672L72.4098 105.022L72.8377 103.97L69.5177 102.62ZM68.4952 100.632L75.0314 103.29L73.5064 107.04L66.9703 104.382L68.4952 100.632ZM65.9492 104.727L73.8786 107.951L71.1301 114.71L69.4256 114.017L71.5955 108.681L67.0157 106.819L64.8398 112.169L63.1947 111.5L65.9492 104.727ZM65.9153 107.528L72.0809 110.036L71.5445 111.355L65.3788 108.847L65.9153 107.528ZM64.9778 109.876L71.1434 112.384L70.5648 113.806L64.3991 111.299L64.9778 109.876ZM68.5211 98.19L76.5839 101.469L75.9751 102.966L67.9123 99.687L68.5211 98.19ZM62.3976 98.1698L66.8292 99.9719L66.1782 101.573L61.7466 99.7705L62.3976 98.1698ZM65.2852 96.1659L67.0193 96.8711L65.6028 100.354L63.8688 99.6489L65.2852 96.1659ZM64.6629 103.133C64.9694 103.568 65.7947 105.234 65.9854 105.657L64.3693 106.658C64.169 105.834 63.6132 104.312 63.3263 103.574L64.6629 103.133ZM66.177 99.7067L66.5327 99.8514L66.8533 99.9127L67.5783 100.933C65.3863 103.392 62.2593 105.178 59.6414 105.754C59.6861 105.22 59.6179 104.156 59.4837 103.721C61.7884 103.363 64.4382 101.901 66.0444 100.033L66.177 99.7067ZM62.1148 103.962L64.6987 102.577L61.3656 110.774L59.6315 110.068L62.1148 103.962Z" fill="#FFD913" fill-opacity="0.8"/>
</g>
<g filter="url(#filter4_f_326_1680)">
<path fill-rule="evenodd" clip-rule="evenodd" d="M47.3436 154.656C37.9994 152.267 33.3785 143.185 37.0078 134.119L54.0017 91.6686L52.317 91.2901C50.701 90.9271 48.8916 91.8805 48.2756 93.4196L32.4034 133.076C28.7072 142.311 33.5708 151.562 43.2666 153.741L47.3436 154.656Z" fill="#FF6969"/>
</g>
<defs>
<filter id="filter0_bii_326_1680" x="51.8047" y="23.9272" width="88.2095" height="87.9224" filterUnits="userSpaceOnUse" color-interpolation-filters="sRGB">
<feFlood flood-opacity="0" result="BackgroundImageFix"/>
<feGaussianBlur in="BackgroundImageFix" stdDeviation="0.75"/>
<feComposite in2="SourceAlpha" operator="in" result="effect1_backgroundBlur_326_1680"/>
<feBlend mode="normal" in="SourceGraphic" in2="effect1_backgroundBlur_326_1680" result="shape"/>
<feColorMatrix in="SourceAlpha" type="matrix" values="0 0 0 0 0 0 0 0 0 0 0 0 0 0 0 0 0 0 127 0" result="hardAlpha"/>
<feOffset dx="-2.48" dy="2.48"/>
<feGaussianBlur stdDeviation="6"/>
<feComposite in2="hardAlpha" operator="arithmetic" k2="-1" k3="1"/>
<feColorMatrix type="matrix" values="0 0 0 0 0.923223 0 0 0 0 0.818143 0 0 0 0 0.818143 0 0 0 0.5 0"/>
<feBlend mode="normal" in2="shape" result="effect2_innerShadow_326_1680"/>
<feColorMatrix in="SourceAlpha" type="matrix" values="0 0 0 0 0 0 0 0 0 0 0 0 0 0 0 0 0 0 127 0" result="hardAlpha"/>
<feOffset dx="1.5" dy="-1.48"/>
<feGaussianBlur stdDeviation="6"/>
<feComposite in2="hardAlpha" operator="arithmetic" k2="-1" k3="1"/>
<feColorMatrix type="matrix" values="0 0 0 0 0 0 0 0 0 0 0 0 0 0 0 0 0 0 0.15 0"/>
<feBlend mode="normal" in2="effect2_innerShadow_326_1680" result="effect3_innerShadow_326_1680"/>
</filter>
<filter id="filter1_f_326_1680" x="67.0029" y="25.293" width="53.7373" height="41.0786" filterUnits="userSpaceOnUse" color-interpolation-filters="sRGB">
<feFlood flood-opacity="0" result="BackgroundImageFix"/>
<feBlend mode="normal" in="SourceGraphic" in2="BackgroundImageFix" result="shape"/>
<feGaussianBlur stdDeviation="2.5" result="effect1_foregroundBlur_326_1680"/>
</filter>
<filter id="filter2_ii_326_1680" x="14.0372" y="72.6104" width="96.6488" height="104.68" filterUnits="userSpaceOnUse" color-interpolation-filters="sRGB">
<feFlood flood-opacity="0" result="BackgroundImageFix"/>
<feBlend mode="normal" in="SourceGraphic" in2="BackgroundImageFix" result="shape"/>
<feColorMatrix in="SourceAlpha" type="matrix" values="0 0 0 0 0 0 0 0 0 0 0 0 0 0 0 0 0 0 127 0" result="hardAlpha"/>
<feOffset dx="-9.73333" dy="9.73333"/>
<feGaussianBlur stdDeviation="4.86667"/>
<feComposite in2="hardAlpha" operator="arithmetic" k2="-1" k3="1"/>
<feColorMatrix type="matrix" values="0 0 0 0 1 0 0 0 0 1 0 0 0 0 1 0 0 0 0.1 0"/>
<feBlend mode="normal" in2="shape" result="effect1_innerShadow_326_1680"/>
<feColorMatrix in="SourceAlpha" type="matrix" values="0 0 0 0 0 0 0 0 0 0 0 0 0 0 0 0 0 0 127 0" result="hardAlpha"/>
<feOffset dx="9.73333" dy="-9.73333"/>
<feGaussianBlur stdDeviation="8.7"/>
<feComposite in2="hardAlpha" operator="arithmetic" k2="-1" k3="1"/>
<feColorMatrix type="matrix" values="0 0 0 0 0.659951 0 0 0 0 0 0 0 0 0 0 0 0 0 1 0"/>
<feBlend mode="normal" in2="effect1_innerShadow_326_1680" result="effect2_innerShadow_326_1680"/>
</filter>
<filter id="filter3_i_326_1680" x="57.2896" y="95.2134" width="19.5415" height="23.5503" filterUnits="userSpaceOnUse" color-interpolation-filters="sRGB">
<feFlood flood-opacity="0" result="BackgroundImageFix"/>
<feBlend mode="normal" in="SourceGraphic" in2="BackgroundImageFix" result="shape"/>
<feColorMatrix in="SourceAlpha" type="matrix" values="0 0 0 0 0 0 0 0 0 0 0 0 0 0 0 0 0 0 127 0" result="hardAlpha"/>
<feOffset dy="4"/>
<feGaussianBlur stdDeviation="2.2"/>
<feComposite in2="hardAlpha" operator="arithmetic" k2="-1" k3="1"/>
<feColorMatrix type="matrix" values="0 0 0 0 0 0 0 0 0 0 0 0 0 0 0 0 0 0 0.25 0"/>
<feBlend mode="normal" in2="shape" result="effect1_innerShadow_326_1680"/>
</filter>
<filter id="filter4_f_326_1680" x="24.166" y="84.2129" width="36.8354" height="77.4434" filterUnits="userSpaceOnUse" color-interpolation-filters="sRGB">
<feFlood flood-opacity="0" result="BackgroundImageFix"/>
<feBlend mode="normal" in="SourceGraphic" in2="BackgroundImageFix" result="shape"/>
<feGaussianBlur stdDeviation="3.5" result="effect1_foregroundBlur_326_1680"/>
</filter>
<linearGradient id="paint0_linear_326_1680" x1="70.4597" y1="40.6307" x2="124.284" y2="95.9068" gradientUnits="userSpaceOnUse">
<stop stop-color="#FF4BA2"/>
<stop offset="0.34375" stop-color="#0DD1FC" stop-opacity="0.8"/>
<stop offset="0.557292" stop-color="#3AFF4E" stop-opacity="0.5"/>
<stop offset="0.803263" stop-color="#FAFF00"/>
</linearGradient>
<linearGradient id="paint1_linear_326_1680" x1="38.1113" y1="149.287" x2="117.518" y2="91.3992" gradientUnits="userSpaceOnUse">
<stop stop-color="#FF0000"/>
<stop offset="0.484375" stop-color="#FF0000"/>
<stop offset="1" stop-color="#FF0000"/>
</linearGradient>
</defs>
</svg>
