<svg width="134" height="167" viewBox="0 0 134 167" fill="none" xmlns="http://www.w3.org/2000/svg">
<g filter="url(#filter0_bii_326_1653)">
<path d="M72.4764 23.9225C76.802 14.9718 87.5646 11.2224 96.5153 15.548L116 24.9641C124.95 29.2897 128.7 40.0522 124.374 49.003L100.952 97.4689L49.0545 72.3884L72.4764 23.9225Z" fill="#038C00" fill-opacity="0.15"/>
</g>
<g filter="url(#filter1_f_326_1653)">
<path fill-rule="evenodd" clip-rule="evenodd" d="M93.7045 19.2469C88.6145 16.787 82.4942 18.9192 80.0344 24.0092L63.0724 59.1078L64.3486 59.7245L80.9374 25.3982C83.5517 19.9884 90.0566 17.7223 95.4663 20.3366C95.4768 20.3417 95.4873 20.3468 95.4977 20.3519C94.95 19.9309 94.3511 19.5593 93.7045 19.2469Z" fill="#EDFFE6"/>
</g>
<g filter="url(#filter2_ii_326_1653)">
<path d="M23.7765 122.444C19.4509 131.394 23.2003 142.157 32.151 146.483L53.5605 156.829C62.5113 161.155 73.2738 157.405 77.5994 148.454L100.875 100.291C101.596 98.7989 100.971 97.0051 99.4796 96.2842L51.0589 72.8841C49.5671 72.1632 47.7734 72.7881 47.0524 74.2799L23.7765 122.444Z" fill="url(#paint0_linear_326_1653)"/>
</g>
<g filter="url(#filter3_f_326_1653)">
<path fill-rule="evenodd" clip-rule="evenodd" d="M43.0375 146.53C33.8254 143.673 29.6678 134.37 33.749 125.498L52.859 83.9573L51.1955 83.4944C49.5998 83.0505 47.7447 83.9116 47.052 85.4177L29.2029 124.224C25.0464 133.261 29.438 142.746 39.0117 145.41L43.0375 146.53Z" fill="#666666"/>
</g>
<defs>
<filter id="filter0_bii_326_1653" x="46.5747" y="12.2505" width="81.0972" height="87.6983" filterUnits="userSpaceOnUse" color-interpolation-filters="sRGB">
<feFlood flood-opacity="0" result="BackgroundImageFix"/>
<feGaussianBlur in="BackgroundImageFix" stdDeviation="0.75"/>
<feComposite in2="SourceAlpha" operator="in" result="effect1_backgroundBlur_326_1653"/>
<feBlend mode="normal" in="SourceGraphic" in2="effect1_backgroundBlur_326_1653" result="shape"/>
<feColorMatrix in="SourceAlpha" type="matrix" values="0 0 0 0 0 0 0 0 0 0 0 0 0 0 0 0 0 0 127 0" result="hardAlpha"/>
<feOffset dx="-2.48" dy="2.48"/>
<feGaussianBlur stdDeviation="4"/>
<feComposite in2="hardAlpha" operator="arithmetic" k2="-1" k3="1"/>
<feColorMatrix type="matrix" values="0 0 0 0 1 0 0 0 0 1 0 0 0 0 1 0 0 0 0.5 0"/>
<feBlend mode="normal" in2="shape" result="effect2_innerShadow_326_1653"/>
<feColorMatrix in="SourceAlpha" type="matrix" values="0 0 0 0 0 0 0 0 0 0 0 0 0 0 0 0 0 0 127 0" result="hardAlpha"/>
<feOffset dx="1.5" dy="-1.48"/>
<feGaussianBlur stdDeviation="4"/>
<feComposite in2="hardAlpha" operator="arithmetic" k2="-1" k3="1"/>
<feColorMatrix type="matrix" values="0 0 0 0 0 0 0 0 0 0.158266 0 0 0 0 0.0348186 0 0 0 0.8 0"/>
<feBlend mode="normal" in2="effect2_innerShadow_326_1653" result="effect3_innerShadow_326_1653"/>
</filter>
<filter id="filter1_f_326_1653" x="58.0723" y="13.2246" width="42.4253" height="51.5" filterUnits="userSpaceOnUse" color-interpolation-filters="sRGB">
<feFlood flood-opacity="0" result="BackgroundImageFix"/>
<feBlend mode="normal" in="SourceGraphic" in2="BackgroundImageFix" result="shape"/>
<feGaussianBlur stdDeviation="2.5" result="effect1_foregroundBlur_326_1653"/>
</filter>
<filter id="filter2_ii_326_1653" x="12.2457" y="62.8511" width="98.6625" height="105.509" filterUnits="userSpaceOnUse" color-interpolation-filters="sRGB">
<feFlood flood-opacity="0" result="BackgroundImageFix"/>
<feBlend mode="normal" in="SourceGraphic" in2="BackgroundImageFix" result="shape"/>
<feColorMatrix in="SourceAlpha" type="matrix" values="0 0 0 0 0 0 0 0 0 0 0 0 0 0 0 0 0 0 127 0" result="hardAlpha"/>
<feOffset dx="-9.73333" dy="9.73333"/>
<feGaussianBlur stdDeviation="4.86667"/>
<feComposite in2="hardAlpha" operator="arithmetic" k2="-1" k3="1"/>
<feColorMatrix type="matrix" values="0 0 0 0 1 0 0 0 0 1 0 0 0 0 1 0 0 0 0.1 0"/>
<feBlend mode="normal" in2="shape" result="effect1_innerShadow_326_1653"/>
<feColorMatrix in="SourceAlpha" type="matrix" values="0 0 0 0 0 0 0 0 0 0 0 0 0 0 0 0 0 0 127 0" result="hardAlpha"/>
<feOffset dx="9.73333" dy="-9.73333"/>
<feGaussianBlur stdDeviation="10"/>
<feComposite in2="hardAlpha" operator="arithmetic" k2="-1" k3="1"/>
<feColorMatrix type="matrix" values="0 0 0 0 0 0 0 0 0 0 0 0 0 0 0 0 0 0 1 0"/>
<feBlend mode="normal" in2="effect1_innerShadow_326_1653" result="effect2_innerShadow_326_1653"/>
</filter>
<filter id="filter3_f_326_1653" x="17.6348" y="73.3779" width="45.2241" height="83.1519" filterUnits="userSpaceOnUse" color-interpolation-filters="sRGB">
<feFlood flood-opacity="0" result="BackgroundImageFix"/>
<feBlend mode="normal" in="SourceGraphic" in2="BackgroundImageFix" result="shape"/>
<feGaussianBlur stdDeviation="5" result="effect1_foregroundBlur_326_1653"/>
</filter>
<linearGradient id="paint0_linear_326_1653" x1="35.7927" y1="138.794" x2="108.867" y2="94.1043" gradientUnits="userSpaceOnUse">
<stop stop-color="#232323"/>
<stop offset="0.421875" stop-color="#1E1E1E"/>
<stop offset="1"/>
</linearGradient>
</defs>
</svg>
