<svg xmlns="http://www.w3.org/2000/svg" width="40" height="40" viewBox="0 0 40 40" fill="none">
  <g clip-path="url(#clip0_67_871)">
    <path d="M5 6.66675V1.66675H8.33333V6.66675H13.3333V10.0001H8.33333V15.0001H5V10.0001H0V6.66675H5ZM10 16.6667V11.6667H15V6.66675H26.6667L29.7167 10.0001H35C36.8333 10.0001 38.3333 11.5001 38.3333 13.3334V33.3334C38.3333 35.1667 36.8333 36.6667 35 36.6667H8.33333C6.5 36.6667 5 35.1667 5 33.3334V16.6667H10ZM21.6667 31.6667C26.2667 31.6667 30 27.9334 30 23.3334C30 18.7334 26.2667 15.0001 21.6667 15.0001C17.0667 15.0001 13.3333 18.7334 13.3333 23.3334C13.3333 27.9334 17.0667 31.6667 21.6667 31.6667ZM16.3333 23.3334C16.3333 26.2834 18.7167 28.6667 21.6667 28.6667C24.6167 28.6667 27 26.2834 27 23.3334C27 20.3834 24.6167 18.0001 21.6667 18.0001C18.7167 18.0001 16.3333 20.3834 16.3333 23.3334Z" fill="white"/>
  </g>
  <defs>
    <clipPath id="clip0_67_871">
      <rect width="40" height="40" fill="white"/>
    </clipPath>
  </defs>
</svg>