<svg width="201" height="412" viewBox="0 0 201 412" fill="none" xmlns="http://www.w3.org/2000/svg">
<path d="M115.952 14.5579C115.952 14.5579 74.954 122.168 79.7003 136.573C84.4466 150.977 107.372 148.425 119.055 153.429C130.739 158.434 182.363 43.0035 182.363 43.0035C143.022 46.9066 124.042 45.6489 115.952 14.5579Z" fill="#F2F0EE"/>
<path d="M21.1911 251.726C21.1911 251.726 64.3189 144.951 77.5948 137.619C90.8708 130.286 105.942 147.748 117.911 152.025C129.88 156.302 89.2249 276.037 89.2249 276.037C63.0367 246.42 48.2667 234.434 21.1911 251.726Z" fill="#F2F0EE"/>
<path d="M94.7115 91.333C94.7115 91.333 81.0836 132.621 86.7427 139.702C92.4019 146.784 108.777 149.14 118.081 153.125C127.385 157.11 147.595 113.984 147.595 113.984C119.42 109.73 105.351 106.291 94.7115 91.333Z" fill="#C8BDBD"/>
<path d="M160.766 79.5246C160.77 79.427 160.906 79.3305 160.943 79.2686C160.96 78.9028 161.103 77.2377 161.12 76.8718C161.12 76.8718 161.124 76.7743 161.126 76.7401C161.147 76.2718 160.581 76.2463 160.616 76.1159C160.658 75.9516 161.332 75.8501 161.43 75.8545C161.532 75.8591 161.59 75.9937 161.587 76.062C161.57 76.4278 161.458 76.7551 161.441 77.1209C161.438 77.1892 161.429 77.3892 161.561 77.3952C161.863 77.4088 162.137 77.1866 162.474 77.2017C162.971 77.2242 163.319 77.6407 163.297 78.1382L163.251 79.1382C163.233 79.5382 163.633 79.5562 163.629 79.6538C163.624 79.7562 163.524 79.8152 163.421 79.8106L162.787 79.782C162.724 79.7791 162.59 79.7096 162.593 79.6413C162.598 79.5437 162.7 79.5483 162.739 79.4474C162.817 79.1186 162.866 78.7884 162.882 78.4519C162.902 77.9885 162.823 77.5841 162.286 77.5599C161.955 77.5449 161.62 77.5982 161.442 77.8541C161.394 78.155 161.388 78.2867 161.378 78.5209C161.366 78.7843 161.359 78.9501 161.379 79.2541C161.432 79.4911 161.871 79.4082 161.863 79.5741C161.857 79.7107 161.192 79.71 161.056 79.7038C160.924 79.6979 160.758 79.6904 160.766 79.5246Z" fill="black"/>
<path d="M158.453 78.4718C158.478 78.1701 158.537 77.8761 158.561 77.5793C158.606 77.044 158.15 77.2757 158.17 77.0422C158.186 76.8427 158.511 77.0019 158.616 76.9126C158.796 76.7609 158.632 76.3112 158.968 76.3391C159.065 76.3471 159.128 76.4209 159.12 76.5182C159.117 76.5523 159.072 76.6808 159.069 76.7149C159.049 76.9582 159.202 76.9954 159.412 77.0128C159.743 77.0402 160.087 76.9658 160.418 76.9932C160.486 76.9989 160.504 77.1375 160.499 77.2008C160.493 77.2689 160.427 77.2977 160.356 77.3262C160.138 77.2983 159.949 77.2728 159.793 77.2599C159.044 77.1979 158.911 77.3828 158.829 78.3707C158.824 78.4339 158.793 78.7989 158.788 78.867C158.777 78.9984 158.831 79.1695 158.96 79.2144C158.994 79.2172 159.193 79.2338 159.227 79.2366C159.558 79.264 159.905 79.1604 160.236 79.1878C160.333 79.1959 160.435 79.2044 160.427 79.3017C160.405 79.5693 159.197 79.6016 159.032 79.5879C158.399 79.5354 158.415 78.9341 158.453 78.4718Z" fill="black"/>
<path d="M154.095 78.8993C154.061 78.8947 153.969 78.8132 153.977 78.7503C154 78.5858 154.49 78.7161 154.572 78.3233C154.581 78.2604 154.626 77.9265 154.639 77.8297C154.684 77.5007 154.691 77.2306 154.701 76.897C154.647 76.7862 154.584 76.7777 154.483 76.764C154.352 76.7463 154.207 76.7957 154.077 76.7781L154.043 76.7735C154.047 76.7396 154.027 76.6382 154.031 76.6044C154.031 76.6044 154.031 76.6044 154.036 76.5705C154.067 76.3382 154.827 76.441 154.895 76.4501C155.161 76.4861 155.005 76.8692 155.238 76.9006C155.339 76.9143 155.441 76.8936 155.522 76.8059C155.805 76.6768 156.056 76.5727 156.356 76.6133C156.52 76.6355 156.806 76.7432 156.775 76.9754C156.753 77.14 156.579 77.1854 156.414 77.1632C156.284 77.1455 156.123 77.0549 155.993 77.0372C155.698 76.9973 155.134 77.1576 155.089 77.4866L154.938 78.6092L155.026 78.7245C155.288 78.7896 155.583 78.8295 155.844 78.8994L155.869 78.9372C155.898 78.9756 155.923 79.0479 155.923 79.0479C155.905 79.1786 155.576 79.1341 155.508 79.1249C155.412 79.1118 155.349 79.0688 155.252 79.0557C155.053 79.0289 154.85 79.0359 154.652 79.0091C154.42 78.9777 154.318 78.9639 154.095 78.8993Z" fill="black"/>
<path d="M150.479 77.157C150.53 76.8586 150.811 76.2331 151.133 76.12L151.703 75.9455L152.396 76.0646C152.819 76.1375 153.061 76.8925 153.005 77.2197C152.96 77.4796 152.83 77.4572 152.593 77.4512C152.463 77.4288 152.296 77.3951 152.113 77.3636C151.747 77.3007 151.321 77.2424 151.002 77.2817C150.969 77.2759 150.913 77.4 150.913 77.4C150.828 77.8909 151.391 78.1611 151.752 78.2231C152.113 78.2852 152.508 78.1499 152.835 78.2062C152.903 78.2178 152.925 78.2861 152.914 78.3535C152.868 78.6182 151.69 78.584 151.493 78.5501C150.771 78.426 150.355 77.8788 150.479 77.157ZM151.093 76.7523C151.065 76.9208 151.454 77.0175 151.584 77.0398C151.878 77.0903 152.147 77.1069 152.48 77.1295C152.559 77.0737 152.599 77.0458 152.615 76.9496C152.649 76.7523 152.373 76.368 152.181 76.3349L151.685 76.2496C151.488 76.2157 151.127 76.5598 151.093 76.7523Z" fill="black"/>
<path d="M147.273 74.0105C147.444 73.843 147.882 73.8735 148.078 73.9161C148.173 73.9369 148.322 74.0343 148.3 74.1344C148.237 74.4255 148.11 74.7077 148.054 74.9654C148.032 75.0656 147.964 75.2205 148.011 75.3008C148.045 75.3081 148.111 75.3226 148.145 75.3299C148.34 75.3725 148.584 75.3556 148.775 75.3972C149.495 75.5542 149.773 76.2993 149.631 76.9481C149.518 77.4682 149.117 77.5858 148.748 77.8802C148.464 77.9232 148.295 77.9212 148.037 77.8651C147.87 77.8287 147.682 77.7527 147.486 77.7101C147.391 77.6893 147.283 77.7008 147.188 77.68C147.154 77.6728 147.059 77.652 147.074 77.5852L147.748 74.4889C147.819 74.1645 147.318 74.2603 147.273 74.0105ZM147.6 77.0502C147.489 77.4008 147.873 77.5194 148.13 77.5755C148.717 77.7034 149.126 77.2479 149.239 76.7278C149.304 76.432 149.172 76.0984 148.978 75.8863C148.83 75.7841 148.668 75.7488 148.473 75.7062C147.852 75.571 147.848 75.91 147.721 76.4968C147.699 76.597 147.613 76.9882 147.6 77.0502Z" fill="black"/>
<path d="M141.428 75.981C141.447 75.9152 141.54 75.8347 141.581 75.8157C141.723 75.5411 141.807 75.1133 141.887 74.8264C141.914 74.7276 142.039 74.2807 142.066 74.1819C142.073 74.0471 141.681 74.0745 141.734 73.8816C141.8 73.6465 142.285 73.7613 142.449 73.8072C142.482 73.8163 142.592 73.9129 142.625 73.922C142.638 73.9307 142.652 73.9346 142.671 73.9398C142.822 73.9818 143.032 73.8986 143.206 73.947C143.366 73.9916 143.505 74.2382 143.698 74.2919C143.924 74.3548 144.152 74.2815 144.378 74.3444C144.924 74.4964 144.851 74.9932 144.725 75.4448C144.645 75.7317 144.54 75.9812 144.46 76.2682L144.451 76.3011C144.442 76.334 144.421 76.536 144.412 76.569C144.452 76.6814 144.678 76.7443 144.641 76.876C144.609 76.9889 144.471 76.9757 144.358 76.9443C144.278 76.922 144.215 76.8942 144.187 76.8864C144.121 76.868 143.928 76.8143 143.9 76.8064C143.834 76.7881 143.777 76.7368 143.763 76.6618C144.092 76.4799 144.141 75.941 144.222 75.6493C144.248 75.5552 144.356 75.1695 144.383 75.0708C144.492 74.7917 144.326 74.6392 144.072 74.5684C143.945 74.5331 143.771 74.5201 143.699 74.6722C143.671 74.771 143.505 75.2416 143.477 75.3403L143.451 75.4344C143.442 75.4673 143.415 75.5614 143.415 75.5614C143.388 75.6602 143.287 76.1492 143.26 76.2479C143.304 76.3261 143.445 76.4365 143.418 76.5353C143.392 76.6294 143.354 76.6544 143.256 76.6269L142.743 76.4841C142.71 76.4749 142.634 76.3829 142.643 76.3499C142.651 76.3217 142.651 76.3217 142.651 76.3217C142.911 76.0088 143.019 75.7297 143.135 75.3111C143.225 74.9912 143.461 74.3981 142.981 74.2644C142.821 74.2199 142.502 74.2374 142.448 74.4303L142.046 75.8743C141.992 76.0672 142.372 76.0667 142.319 76.2595C142.31 76.2924 142.23 76.3413 142.197 76.3321L141.586 76.1617C141.52 76.1434 141.411 76.0422 141.428 75.981Z" fill="black"/>
<path d="M138.133 73.7689C138.23 73.4822 138.605 72.9082 138.941 72.8466L139.531 72.7632L140.197 72.989C140.604 73.127 140.725 73.9104 140.618 74.2249C140.534 74.4746 140.409 74.4323 140.176 74.3894C140.051 74.347 139.891 74.2875 139.715 74.228C139.364 74.1088 138.952 73.9847 138.631 73.9738C138.598 73.9628 138.524 74.0767 138.524 74.0767C138.364 74.5483 138.878 74.903 139.225 75.0206C139.571 75.1382 139.982 75.0662 140.297 75.1729C140.362 75.1948 140.374 75.2659 140.352 75.3306C140.265 75.585 139.107 75.3675 138.917 75.3032C138.224 75.068 137.898 74.4625 138.133 73.7689ZM138.803 73.4651C138.748 73.6269 139.118 73.7833 139.243 73.8256C139.525 73.9212 139.789 73.9797 140.114 74.054C140.201 74.0112 140.244 73.9898 140.276 73.8973C140.34 73.7077 140.128 73.2851 139.943 73.2224L139.466 73.0609C139.277 72.9966 138.866 73.2801 138.803 73.4651Z" fill="black"/>
<path d="M132.85 72.8021C132.876 72.7387 132.978 72.669 133.02 72.6546C133.192 72.3974 133.322 71.9814 133.433 71.705C133.472 71.6099 133.645 71.1795 133.683 71.0843C133.705 70.9511 133.311 70.935 133.386 70.7493C133.477 70.5227 133.947 70.6903 134.105 70.7541C134.137 70.7668 134.235 70.8749 134.267 70.8876C134.279 70.8976 134.293 70.9031 134.311 70.9104C134.456 70.9686 134.674 70.9091 134.842 70.9765C134.996 71.0384 135.107 71.2988 135.293 71.3735C135.51 71.4609 135.745 71.4132 135.963 71.5006C136.488 71.7118 136.361 72.1976 136.187 72.6325C136.076 72.9089 135.944 73.1453 135.833 73.4217L135.82 73.4534C135.807 73.4851 135.764 73.6836 135.751 73.7154C135.778 73.8315 135.996 73.9189 135.945 74.0457C135.901 74.1545 135.765 74.1261 135.657 74.0824C135.579 74.0515 135.52 74.0169 135.493 74.006C135.429 73.9805 135.243 73.9058 135.216 73.8949C135.153 73.8694 135.102 73.8122 135.096 73.7361C135.443 73.5915 135.551 73.0613 135.664 72.7804C135.7 72.6898 135.85 72.3183 135.888 72.2231C136.026 71.9577 135.879 71.7879 135.634 71.6896C135.512 71.6404 135.34 71.6084 135.251 71.7515C135.213 71.8466 134.996 72.296 134.957 72.3912L134.921 72.4818C134.908 72.5135 134.872 72.6041 134.872 72.6041C134.834 72.6992 134.68 73.1741 134.641 73.2693C134.677 73.3518 134.805 73.4772 134.767 73.5723C134.731 73.6629 134.691 73.6837 134.595 73.6455L134.102 73.447C134.07 73.4343 134.005 73.3344 134.018 73.3027C134.028 73.2755 134.028 73.2755 134.028 73.2755C134.321 72.9931 134.459 72.7277 134.621 72.3244C134.745 72.0163 135.045 71.4529 134.583 71.2671C134.429 71.2052 134.11 71.1875 134.035 71.3732L133.476 72.7641C133.402 72.9499 133.78 72.9913 133.705 73.1771C133.692 73.2088 133.608 73.2485 133.576 73.2358L132.987 72.9991C132.924 72.9736 132.827 72.861 132.85 72.8021Z" fill="black"/>
<path d="M129.82 70.2405C129.948 69.9662 130.384 69.4371 130.724 69.4128L131.32 69.395L131.957 69.6928C132.346 69.8748 132.38 70.6668 132.239 70.9676C132.128 71.2065 132.008 71.1506 131.781 71.0823C131.662 71.0265 131.509 70.9497 131.341 70.8711C131.005 70.7139 130.61 70.5452 130.292 70.4989C130.261 70.4845 130.174 70.5894 130.174 70.5894C129.963 71.0406 130.435 71.4498 130.766 71.6049C131.098 71.76 131.515 71.7337 131.815 71.8744C131.877 71.9033 131.881 71.9753 131.852 72.0372C131.739 72.2805 130.611 71.9366 130.43 71.8518C129.766 71.5416 129.509 70.904 129.82 70.2405ZM130.519 70.0124C130.447 70.1672 130.797 70.3633 130.916 70.4192C131.186 70.5453 131.442 70.6325 131.757 70.7422C131.848 70.7092 131.894 70.6927 131.935 70.6043C132.02 70.4229 131.855 69.9794 131.678 69.8967L131.223 69.6837C131.041 69.5989 130.602 69.8355 130.519 70.0124Z" fill="black"/>
<path d="M127.483 70.3124C127.453 70.2968 127.393 70.1893 127.422 70.1328C127.497 69.985 127.916 70.2707 128.124 69.9276C128.153 69.8711 128.307 69.5713 128.351 69.4843C128.503 69.1888 128.599 68.9364 128.72 68.6253C128.706 68.5028 128.649 68.4739 128.558 68.4272C128.441 68.3671 128.288 68.3656 128.171 68.3056L128.14 68.29C128.156 68.2596 128.17 68.1571 128.185 68.1266C128.185 68.1266 128.185 68.1266 128.201 68.0962C128.308 67.8876 128.99 68.237 129.051 68.2681C129.29 68.3905 129.016 68.7002 129.225 68.807C129.316 68.8537 129.419 68.8678 129.524 68.812C129.834 68.7844 130.105 68.7695 130.375 68.9075C130.523 68.9832 130.757 69.1797 130.65 69.3884C130.574 69.5361 130.395 69.5213 130.247 69.4457C130.13 69.3856 130.009 69.2468 129.892 69.1868C129.627 69.051 129.042 69.0149 128.89 69.3104L128.374 70.3187L128.419 70.4567C128.644 70.6052 128.909 70.741 129.133 70.8938L129.143 70.9375C129.158 70.9835 129.157 71.06 129.157 71.06C129.097 71.1773 128.802 71.026 128.741 70.9948C128.654 70.9503 128.609 70.8888 128.522 70.8443C128.344 70.753 128.15 70.6922 127.972 70.601C127.763 70.4942 127.672 70.4474 127.483 70.3124Z" fill="black"/>
<path d="M123.167 66.848L123.231 66.8064C123.231 66.8064 123.266 66.7475 123.281 66.7223C123.316 66.6634 123.304 66.6166 123.338 66.5577L123.4 66.5204L123.74 65.9441C123.874 65.717 123.444 65.6567 123.462 65.4346C123.677 65.3291 123.993 65.515 124.165 65.6167C124.19 65.6316 124.214 65.6398 124.235 65.6522C124.268 65.672 124.289 65.6953 124.276 65.7557C124.258 65.7851 124.174 65.9282 124.157 65.9576C124.003 66.2184 123.84 66.4282 123.686 66.689C123.535 66.9456 123.178 67.5513 123.611 67.8067L124.099 68.0943C124.353 68.125 124.543 68.1972 124.694 67.9406L125.304 66.9058C125.455 66.6492 125.009 66.6184 125.128 66.4165C125.229 66.244 125.688 66.5142 125.801 66.5812C125.915 66.6481 125.825 66.8674 125.793 66.9221C125.607 67.2376 125.407 67.5105 125.238 67.7965C125.188 67.8806 125.017 68.1709 125.002 68.1961L124.93 68.3859C125.031 68.4848 125.24 68.6481 125.139 68.8206C125.087 68.9089 124.579 68.7228 124.52 68.6881C124.436 68.6385 124.414 68.4729 124.301 68.4059C124.044 68.2547 123.711 68.2908 123.454 68.1395C123.021 67.8842 122.932 67.2476 123.167 66.848Z" fill="black"/>
<path d="M119.843 64.3528C120.262 63.7106 121.069 63.5195 121.735 63.9541C122.353 64.3567 122.518 65.1405 122.1 65.7827C121.697 66.4004 120.811 66.5341 120.198 66.1341C119.584 65.7342 119.459 64.9418 119.843 64.3528ZM120.226 64.5615C119.933 65.0114 119.933 65.5653 120.408 65.8747C120.882 66.184 121.465 66.0859 121.764 65.5641C122.061 65.0464 121.973 64.511 121.47 64.183C120.966 63.855 120.535 64.087 120.226 64.5615Z" fill="black"/>
<path d="M115.959 64.3277C116.038 64.2165 116.182 64.2415 116.262 64.2983C116.373 64.3778 116.435 64.4585 116.543 64.5352C116.868 64.768 117.513 64.3285 117.686 64.0862C117.706 64.0584 117.726 64.0306 117.726 64.0306L117.805 63.5169C117.694 63.2694 117.868 62.7399 117.925 62.4924C117.934 62.4209 117.995 62.0503 118.004 61.9788C118.004 61.8108 117.691 61.6704 117.787 61.5354C117.875 61.4122 118.11 61.5622 118.261 61.6701C118.309 61.7042 118.352 61.7355 118.372 61.7497C118.428 61.7894 118.805 62.0592 118.736 62.2142C118.688 62.3413 118.489 62.1573 118.449 62.2129L118.273 62.4591C118.273 62.4591 118.194 62.9728 118.161 63.1953C118.116 63.3672 118.035 63.5976 118.198 63.7141C118.361 63.8305 119.31 63.0744 119.367 62.9949C119.503 62.8043 119.109 62.7263 119.245 62.5357C119.313 62.4404 119.61 62.629 119.817 62.7766C119.9 62.8363 119.969 62.8914 120.001 62.9141C120.029 62.934 120.191 63.0504 120.215 63.0675C120.223 63.1151 120.27 63.2264 120.202 63.2621C120.03 63.3852 119.827 63.1564 119.608 63.2874C119.004 63.6782 118.456 63.9827 117.848 64.3218C117.317 64.6025 116.699 65.1812 116.075 64.7353C115.992 64.6757 115.862 64.4627 115.959 64.3277Z" fill="black"/>
<path d="M112.727 58.9527C113.043 58.5675 113.789 58.1882 114.276 58.5875L114.975 59.1601C115.024 59.2003 115.137 59.1162 115.177 59.0671C115.221 59.0143 115.256 58.9171 115.299 58.8642C115.364 58.7849 115.431 58.7574 115.496 58.6781C115.685 58.4478 115.243 58.2557 115.37 58.1009C115.496 57.946 116.045 58.2698 116.098 58.3131C116.178 58.3781 116.187 58.4674 116.122 58.5467L114.243 60.8391L114.121 61.042C114.056 61.1213 114.404 61.2742 114.277 61.429C114.15 61.5838 113.915 61.3469 113.77 61.3162C113.724 61.2722 113.678 61.2351 113.633 61.1979C113.361 60.9751 113.084 60.8429 112.797 60.6077C112.771 60.586 112.616 60.4591 112.59 60.4375C112.217 59.9991 112.411 59.3379 112.727 58.9527ZM113.106 59.1753C112.704 59.6663 112.777 60.1552 113.268 60.5576C113.759 60.96 114.057 60.4342 114.397 60.0188C114.713 59.6336 114.856 59.3592 114.418 59.0002C113.953 58.6195 113.465 58.7373 113.106 59.1753Z" fill="black"/>
<path d="M110.818 58.6856C110.866 58.6824 110.963 58.676 111.011 58.6728C111.684 59.2165 111.63 59.1301 112.225 58.4505C112.421 58.2265 112.595 57.9762 112.765 57.7296C112.792 57.669 112.729 57.6005 112.67 57.5491C112.633 57.5169 112.597 57.4916 112.586 57.482C112.535 57.4369 112.436 57.3501 112.436 57.3501L112.31 57.2857C112.262 57.2439 112.23 57.1249 112.272 57.0771C112.404 56.9265 113.151 57.4896 113.279 57.6022C113.378 57.689 113.343 57.8782 113.275 57.9554C113.056 58.2052 112.815 58.4356 112.593 58.6891C112.375 58.9389 112.201 59.1372 112.024 59.3843C112.027 59.4325 112.056 59.5033 112.081 59.5258L112.715 60.1655C112.789 60.2298 112.721 60.3069 112.699 60.3327C112.634 60.4061 112.542 60.4157 112.465 60.3482L110.837 58.923C110.786 58.878 110.776 58.7333 110.818 58.6856ZM113.508 56.8292C113.663 56.6529 113.923 56.6599 114.073 56.7918C114.224 56.9237 114.24 57.1129 114.127 57.2415C113.976 57.4141 113.716 57.4071 113.54 57.2527C113.437 57.1626 113.399 56.9541 113.508 56.8292Z" fill="black"/>
<path d="M107.557 55.6938C107.648 55.5979 107.889 55.8258 108.029 55.7769C108.261 55.5318 109.383 54.4424 109.614 54.1973C109.614 54.1973 109.728 54.0766 109.772 54.0304C109.772 54.0304 109.889 53.9061 109.909 53.8848C110.068 53.6661 109.637 53.4402 109.795 53.2733C109.865 53.1987 110.011 53.2429 110.082 53.3099C111.102 54.2717 111.954 55.3109 110.787 56.5467C110.446 56.9089 109.4 57.4331 108.918 57.119C108.77 57.0265 108.625 56.896 108.486 56.7653C108.359 56.6447 108.234 56.5205 108.117 56.4099C108.046 56.3429 107.659 55.9776 107.584 55.9072C107.584 55.9072 107.51 55.7435 107.557 55.6938ZM108.394 56.0737C108.313 56.159 108.41 56.277 108.488 56.3508C108.524 56.3843 108.556 56.4075 108.57 56.4209C109.198 57.0141 109.942 56.7093 110.469 56.1518C110.971 55.6191 111.188 54.8564 110.609 54.3101C110.609 54.3101 110.339 54.0554 110.292 54.1052L110.133 54.2307C109.996 54.3763 109.398 54.96 109.26 55.1056C109.24 55.127 108.961 55.3734 108.941 55.3947C108.941 55.3947 108.941 55.3947 108.917 55.4196C108.894 55.4444 108.781 55.6135 108.758 55.6383C108.691 55.7093 108.464 55.9991 108.394 56.0737Z" fill="black"/>
<path d="M156.758 88.8353C156.762 88.7378 156.899 88.6413 156.936 88.5794C156.952 88.2136 157.096 86.5484 157.112 86.1826C157.112 86.1826 157.117 86.0851 157.118 86.0509C157.139 85.5826 156.574 85.5571 156.609 85.4267C156.65 85.2624 157.325 85.1609 157.422 85.1653C157.525 85.1699 157.582 85.3045 157.579 85.3727C157.562 85.7386 157.45 86.0659 157.433 86.4317C157.43 86.5 157.421 86.7 157.553 86.7059C157.855 86.7196 158.129 86.4973 158.466 86.5125C158.964 86.535 159.311 86.9515 159.289 87.449L159.244 88.449C159.226 88.849 159.626 88.867 159.621 88.9646C159.617 89.067 159.516 89.126 159.414 89.1214L158.78 89.0928C158.716 89.0899 158.583 89.0203 158.586 88.9521C158.59 88.8545 158.692 88.8591 158.731 88.7582C158.81 88.4294 158.859 88.0992 158.874 87.7627C158.895 87.2993 158.815 86.8949 158.279 86.8707C157.947 86.8557 157.612 86.909 157.435 87.1649C157.387 87.4658 157.381 87.5975 157.37 87.8317C157.358 88.0951 157.351 88.2609 157.371 88.5649C157.424 88.8019 157.863 88.719 157.855 88.8849C157.849 89.0215 157.185 89.0208 157.048 89.0146C156.916 89.0087 156.75 89.0012 156.758 88.8353Z" fill="black"/>
<path d="M154.445 87.7826C154.47 87.4809 154.529 87.1869 154.554 86.8901C154.598 86.3548 154.143 86.5865 154.162 86.353C154.179 86.1534 154.503 86.3126 154.609 86.2234C154.788 86.0716 154.624 85.622 154.96 85.6498C155.057 85.6579 155.12 85.7317 155.112 85.829C155.109 85.8631 155.064 85.9916 155.061 86.0257C155.041 86.269 155.195 86.3062 155.404 86.3236C155.735 86.351 156.079 86.2766 156.41 86.304C156.478 86.3097 156.496 86.4483 156.491 86.5116C156.485 86.5797 156.419 86.6085 156.348 86.637C156.13 86.6091 155.941 86.5836 155.785 86.5707C155.036 86.5086 154.903 86.6936 154.821 87.6814C154.816 87.7447 154.786 88.1097 154.78 88.1778C154.769 88.3092 154.824 88.4803 154.952 88.5252C154.986 88.528 155.186 88.5446 155.22 88.5474C155.551 88.5748 155.897 88.4712 156.228 88.4986C156.326 88.5067 156.428 88.5152 156.42 88.6125C156.398 88.8801 155.19 88.9123 155.024 88.8986C154.392 88.8462 154.407 88.2449 154.445 87.7826Z" fill="black"/>
<path d="M150.088 88.2106C150.054 88.206 149.961 88.1245 149.97 88.0616C149.992 87.8971 150.482 88.0274 150.565 87.6345C150.573 87.5716 150.618 87.2378 150.631 87.141C150.676 86.812 150.683 86.5419 150.694 86.2083C150.64 86.0975 150.577 86.089 150.475 86.0753C150.344 86.0576 150.2 86.107 150.069 86.0893L150.035 86.0848C150.04 86.0509 150.019 85.9495 150.024 85.9157C150.024 85.9157 150.024 85.9157 150.028 85.8818C150.06 85.6495 150.819 85.7523 150.887 85.7614C151.153 85.7974 150.998 86.1805 151.23 86.2119C151.332 86.2256 151.433 86.2048 151.514 86.1172C151.797 85.988 152.048 85.884 152.348 85.9245C152.513 85.9468 152.799 86.0545 152.767 86.2867C152.745 86.4512 152.571 86.4967 152.407 86.4745C152.276 86.4568 152.116 86.3662 151.985 86.3485C151.69 86.3086 151.126 86.4688 151.082 86.7979L150.93 87.9205L151.018 88.0358C151.28 88.1009 151.575 88.1408 151.837 88.2106L151.861 88.2484C151.891 88.2869 151.915 88.3592 151.915 88.3592C151.898 88.4899 151.569 88.4454 151.501 88.4362C151.404 88.4231 151.341 88.3801 151.244 88.367C151.046 88.3402 150.843 88.3472 150.644 88.3204C150.412 88.2889 150.31 88.2752 150.088 88.2106Z" fill="black"/>
<path d="M146.471 86.468C146.523 86.1696 146.804 85.5441 147.125 85.431L147.695 85.2565L148.388 85.3757C148.812 85.4485 149.053 86.2035 148.997 86.5307C148.952 86.7906 148.823 86.7683 148.586 86.7622C148.456 86.7399 148.288 86.7061 148.105 86.6747C147.74 86.6118 147.314 86.5534 146.995 86.5927C146.961 86.5869 146.905 86.711 146.905 86.711C146.821 87.2019 147.384 87.4721 147.745 87.5342C148.105 87.5962 148.5 87.461 148.828 87.5172C148.895 87.5288 148.918 87.5972 148.906 87.6645C148.861 87.9292 147.683 87.8951 147.485 87.8611C146.763 87.737 146.347 87.1898 146.471 86.468ZM147.086 86.0634C147.057 86.2318 147.447 86.3285 147.576 86.3509C147.87 86.4013 148.14 86.418 148.473 86.4405C148.552 86.3848 148.591 86.3569 148.608 86.2606C148.642 86.0633 148.366 85.679 148.173 85.6459L147.678 85.5607C147.48 85.5267 147.119 85.8709 147.086 86.0634Z" fill="black"/>
<path d="M143.265 83.3215C143.436 83.154 143.875 83.1845 144.07 83.2271C144.166 83.2479 144.314 83.3453 144.292 83.4455C144.229 83.7365 144.103 84.0188 144.046 84.2764C144.025 84.3766 143.956 84.5315 144.003 84.6118C144.037 84.6191 144.103 84.6337 144.137 84.6409C144.332 84.6836 144.576 84.6667 144.767 84.7083C145.487 84.8652 145.765 85.6103 145.623 86.2592C145.51 86.7792 145.11 86.8968 144.741 87.1912C144.456 87.2342 144.287 87.2323 144.029 87.1761C143.862 87.1397 143.674 87.0637 143.478 87.0211C143.383 87.0003 143.275 87.0119 143.18 86.9911C143.147 86.9838 143.051 86.963 143.066 86.8962L143.74 83.7999C143.811 83.4755 143.311 83.5713 143.265 83.3215ZM143.592 86.3613C143.481 86.7118 143.865 86.8304 144.122 86.8866C144.709 87.0145 145.118 86.5589 145.232 86.0389C145.296 85.7431 145.164 85.4094 144.97 85.1973C144.822 85.0952 144.66 85.0598 144.465 85.0172C143.844 84.8821 143.841 85.221 143.713 85.8078C143.691 85.908 143.606 86.2992 143.592 86.3613Z" fill="black"/>
<path d="M137.421 85.2923C137.439 85.2264 137.532 85.146 137.573 85.127C137.715 84.8524 137.799 84.4246 137.879 84.1376C137.907 84.0389 138.031 83.592 138.059 83.4932C138.066 83.3584 137.673 83.3858 137.727 83.1929C137.792 82.9577 138.277 83.0726 138.442 83.1184C138.475 83.1276 138.585 83.2241 138.618 83.2333C138.63 83.242 138.644 83.2459 138.663 83.2511C138.814 83.2931 139.025 83.2098 139.199 83.2583C139.359 83.3029 139.498 83.5494 139.69 83.6032C139.916 83.6661 140.144 83.5928 140.37 83.6557C140.916 83.8077 140.843 84.3045 140.718 84.7561C140.638 85.043 140.533 85.2925 140.453 85.5794L140.444 85.6124C140.434 85.6453 140.414 85.8473 140.404 85.8802C140.444 85.9927 140.67 86.0556 140.633 86.1873C140.602 86.3002 140.463 86.287 140.351 86.2555C140.271 86.2333 140.207 86.2055 140.179 86.1976C140.113 86.1793 139.92 86.1256 139.892 86.1177C139.826 86.0994 139.77 86.0481 139.755 85.9731C140.085 85.7911 140.133 85.2522 140.215 84.9606C140.241 84.8665 140.348 84.4808 140.376 84.382C140.484 84.103 140.319 83.9505 140.065 83.8797C139.938 83.8443 139.764 83.8314 139.691 83.9835C139.663 84.0822 139.497 84.5528 139.469 84.6516L139.443 84.7457C139.434 84.7786 139.408 84.8727 139.408 84.8727C139.38 84.9715 139.28 85.4604 139.252 85.5592C139.296 85.6374 139.438 85.7478 139.41 85.8466C139.384 85.9406 139.347 85.9657 139.248 85.9382L138.735 85.7954C138.702 85.7862 138.626 85.6941 138.636 85.6612C138.643 85.633 138.643 85.633 138.643 85.633C138.903 85.3201 139.011 85.041 139.128 84.6224C139.217 84.3025 139.453 83.7094 138.973 83.5757C138.813 83.5312 138.494 83.5487 138.441 83.7416L138.038 85.1856C137.985 85.3784 138.365 85.3779 138.311 85.5708C138.302 85.6037 138.222 85.6525 138.189 85.6434L137.578 85.473C137.512 85.4547 137.403 85.3534 137.421 85.2923Z" fill="black"/>
<path d="M134.126 83.0799C134.223 82.7932 134.598 82.2192 134.933 82.1577L135.524 82.0742L136.19 82.3C136.597 82.438 136.718 83.2215 136.611 83.5359C136.526 83.7856 136.401 83.7433 136.168 83.7004C136.044 83.6581 135.883 83.5986 135.708 83.539C135.356 83.4198 134.945 83.2957 134.623 83.2848C134.591 83.2738 134.516 83.3877 134.516 83.3877C134.356 83.8594 134.87 84.2141 135.217 84.3317C135.564 84.4493 135.975 84.3773 136.29 84.4839C136.354 84.5058 136.366 84.5769 136.344 84.6417C136.258 84.896 135.1 84.6785 134.91 84.6142C134.216 84.379 133.891 83.7736 134.126 83.0799ZM134.796 82.7761C134.741 82.938 135.111 83.0943 135.236 83.1366C135.518 83.2323 135.781 83.2908 136.107 83.365C136.194 83.3222 136.237 83.3008 136.268 83.2084C136.333 83.0188 136.12 82.5961 135.935 82.5334L135.459 82.3719C135.269 82.3076 134.859 82.5912 134.796 82.7761Z" fill="black"/>
<path d="M128.843 82.1134C128.868 82.05 128.97 81.9803 129.013 81.9659C129.184 81.7086 129.315 81.2927 129.426 81.0163C129.464 80.9212 129.637 80.4908 129.675 80.3956C129.697 80.2624 129.304 80.2463 129.378 80.0605C129.469 79.834 129.939 80.0016 130.097 80.0653C130.129 80.0781 130.228 80.1861 130.26 80.1989C130.271 80.2089 130.285 80.2144 130.303 80.2216C130.448 80.2799 130.667 80.2204 130.834 80.2878C130.988 80.3497 131.099 80.6101 131.285 80.6847C131.503 80.7721 131.738 80.7245 131.955 80.8119C132.481 81.0231 132.354 81.5089 132.179 81.9438C132.068 82.2202 131.936 82.4566 131.825 82.733L131.812 82.7647C131.799 82.7964 131.757 82.9949 131.744 83.0266C131.771 83.1427 131.988 83.2301 131.937 83.357C131.894 83.4657 131.758 83.4374 131.649 83.3937C131.572 83.3627 131.512 83.3282 131.485 83.3173C131.421 83.2918 131.236 83.2171 131.209 83.2062C131.145 83.1807 131.094 83.1235 131.088 83.0473C131.436 82.9028 131.544 82.3726 131.656 82.0917C131.693 82.0011 131.842 81.6295 131.88 81.5344C132.019 81.269 131.871 81.0992 131.626 81.0008C131.504 80.9517 131.333 80.9197 131.244 81.0628C131.206 81.1579 130.988 81.6073 130.95 81.7024L130.913 81.7931C130.901 81.8248 130.864 81.9154 130.864 81.9154C130.826 82.0105 130.672 82.4854 130.634 82.5805C130.669 82.6631 130.798 82.7884 130.759 82.8836C130.723 82.9742 130.683 82.995 130.588 82.9568L130.094 82.7583C130.062 82.7455 129.997 82.6457 130.01 82.614C130.021 82.5868 130.021 82.5868 130.021 82.5868C130.313 82.3044 130.452 82.0389 130.614 81.6357C130.737 81.3276 131.038 80.7641 130.575 80.5784C130.421 80.5165 130.102 80.4988 130.028 80.6845L129.469 82.0754C129.394 82.2612 129.772 82.3026 129.697 82.4883C129.685 82.5201 129.6 82.5598 129.568 82.5471L128.979 82.3104C128.916 82.2849 128.819 82.1723 128.843 82.1134Z" fill="black"/>
<path d="M125.812 79.5515C125.94 79.2773 126.376 78.7481 126.716 78.7239L127.312 78.706L127.949 79.0038C128.338 79.1858 128.372 79.9779 128.232 80.2786C128.12 80.5175 128.001 80.4616 127.774 80.3933C127.654 80.3375 127.502 80.2607 127.334 80.1821C126.997 80.0249 126.602 79.8562 126.284 79.81C126.253 79.7955 126.166 79.9004 126.166 79.9004C125.955 80.3516 126.427 80.7608 126.759 80.9159C127.09 81.071 127.507 81.0448 127.808 81.1854C127.87 81.2143 127.874 81.2863 127.845 81.3483C127.731 81.5915 126.604 81.2476 126.422 81.1629C125.759 80.8526 125.502 80.215 125.812 79.5515ZM126.511 79.3234C126.439 79.4782 126.789 79.6744 126.909 79.7302C127.179 79.8563 127.434 79.9435 127.75 80.0532C127.84 80.0202 127.886 80.0038 127.927 79.9153C128.012 79.7339 127.847 79.2905 127.67 79.2077L127.215 78.9947C127.034 78.9099 126.594 79.1465 126.511 79.3234Z" fill="black"/>
<path d="M123.476 79.6234C123.445 79.6079 123.385 79.5003 123.414 79.4438C123.49 79.296 123.908 79.5817 124.117 79.2387C124.146 79.1822 124.299 78.8823 124.344 78.7954C124.495 78.4998 124.591 78.2474 124.712 77.9363C124.698 77.8139 124.642 77.7849 124.55 77.7382C124.433 77.6781 124.28 77.6767 124.163 77.6166L124.132 77.601C124.148 77.5706 124.162 77.4681 124.178 77.4377C124.178 77.4377 124.178 77.4377 124.193 77.4072C124.3 77.1986 124.982 77.548 125.043 77.5791C125.282 77.7015 125.009 78.0112 125.217 78.118C125.309 78.1647 125.411 78.1788 125.516 78.123C125.827 78.0954 126.098 78.0806 126.367 78.2185C126.515 78.2942 126.749 78.4908 126.642 78.6994C126.566 78.8472 126.387 78.8324 126.24 78.7567C126.122 78.6966 126.001 78.5579 125.884 78.4978C125.619 78.3621 125.034 78.3259 124.883 78.6214L124.366 79.6298L124.411 79.7678C124.637 79.9162 124.902 80.052 125.125 80.2048L125.136 80.2486C125.151 80.2946 125.15 80.371 125.15 80.371C125.09 80.4884 124.794 80.337 124.733 80.3059C124.646 80.2614 124.601 80.1998 124.514 80.1553C124.336 80.0641 124.142 80.0032 123.964 79.912C123.755 79.8052 123.664 79.7585 123.476 79.6234Z" fill="black"/>
<path d="M119.16 76.1592L119.224 76.1177C119.224 76.1177 119.258 76.0588 119.273 76.0336C119.308 75.9747 119.296 75.9279 119.331 75.869L119.392 75.8317L119.732 75.2554C119.866 75.0282 119.437 74.9679 119.454 74.7459C119.669 74.6404 119.985 74.8263 120.157 74.928C120.183 74.9429 120.206 74.951 120.227 74.9634C120.261 74.9833 120.281 75.0066 120.268 75.067C120.251 75.0964 120.167 75.2394 120.149 75.2689C119.995 75.5297 119.832 75.7395 119.678 76.0003C119.527 76.2569 119.17 76.8626 119.603 77.118L120.091 77.4056C120.345 77.4363 120.535 77.5085 120.686 77.2519L121.296 76.2171C121.448 75.9605 121.001 75.9296 121.12 75.7277C121.222 75.5553 121.68 75.8255 121.794 75.8925C121.907 75.9594 121.818 76.1787 121.785 76.2334C121.6 76.5489 121.399 76.8217 121.23 77.1078C121.181 77.1919 121.01 77.4822 120.995 77.5074L120.923 77.6972C121.023 77.7961 121.233 77.9594 121.131 78.1319C121.079 78.2202 120.571 78.0341 120.512 77.9994C120.428 77.9498 120.407 77.7842 120.293 77.7172C120.036 77.566 119.703 77.6021 119.447 77.4508C119.014 77.1954 118.924 76.5589 119.16 76.1592Z" fill="black"/>
<path d="M115.836 73.6638C116.254 73.0216 117.061 72.8305 117.728 73.2651C118.345 73.6678 118.511 74.4516 118.092 75.0938C117.689 75.7114 116.804 75.8452 116.19 75.4452C115.576 75.0452 115.452 74.2529 115.836 73.6638ZM116.218 73.8725C115.925 74.3225 115.925 74.8764 116.4 75.1857C116.874 75.495 117.457 75.3969 117.756 74.8751C118.053 74.3574 117.965 73.822 117.462 73.494C116.959 73.1661 116.528 73.398 116.218 73.8725Z" fill="black"/>
<path d="M111.951 73.639C112.03 73.5278 112.175 73.5528 112.254 73.6096C112.365 73.6891 112.428 73.7698 112.535 73.8464C112.861 74.0793 113.505 73.6398 113.678 73.3975C113.698 73.3697 113.718 73.3419 113.718 73.3419L113.797 72.8282C113.686 72.5807 113.861 72.0512 113.918 71.8037C113.927 71.7322 113.988 71.3616 113.997 71.2901C113.997 71.1221 113.683 70.9817 113.779 70.8467C113.868 70.7235 114.102 70.8735 114.253 70.9814C114.301 71.0155 114.345 71.0467 114.365 71.0609C114.42 71.1007 114.798 71.3705 114.729 71.5254C114.68 71.6526 114.481 71.4685 114.442 71.5242L114.265 71.7704C114.265 71.7704 114.186 72.2841 114.153 72.5065C114.108 72.6785 114.028 72.9089 114.19 73.0254C114.353 73.1418 115.302 72.3857 115.359 72.3062C115.495 72.1156 115.101 72.0376 115.237 71.847C115.305 71.7516 115.603 71.9402 115.809 72.0879C115.893 72.1476 115.961 72.2026 115.993 72.2254C116.021 72.2453 116.184 72.3617 116.208 72.3787C116.215 72.4264 116.262 72.5377 116.194 72.5734C116.022 72.6965 115.82 72.4677 115.6 72.5987C114.997 72.9894 114.449 73.294 113.84 73.6331C113.309 73.9138 112.691 74.4925 112.068 74.0466C111.984 73.9869 111.854 73.774 111.951 73.639Z" fill="black"/>
<path d="M108.719 68.2638C109.035 67.8786 109.781 67.4992 110.269 67.8985L110.967 68.4711C111.016 68.5113 111.129 68.4273 111.17 68.3782C111.213 68.3253 111.249 68.2281 111.292 68.1752C111.357 68.0959 111.424 68.0685 111.489 67.9892C111.677 67.7588 111.235 67.5667 111.362 67.4119C111.489 67.2571 112.038 67.5808 112.091 67.6241C112.17 67.6891 112.179 67.7785 112.114 67.8578L110.235 70.1501L110.113 70.3531C110.048 70.4324 110.396 70.5852 110.269 70.74C110.142 70.8949 109.907 70.658 109.762 70.6273C109.716 70.5833 109.671 70.5461 109.625 70.509C109.353 70.2861 109.077 70.154 108.79 69.9187C108.763 69.8971 108.608 69.7702 108.582 69.7485C108.209 69.3102 108.404 68.649 108.719 68.2638ZM109.099 68.4864C108.696 68.9773 108.769 69.4663 109.26 69.8686C109.751 70.271 110.049 69.7453 110.39 69.3298C110.705 68.9446 110.848 68.6703 110.41 68.3112C109.946 67.9305 109.458 68.0483 109.099 68.4864Z" fill="black"/>
<path d="M106.81 67.9966C106.859 67.9934 106.955 67.987 107.003 67.9838C107.676 68.5275 107.622 68.4411 108.217 67.7616C108.413 67.5375 108.587 67.2872 108.758 67.0407C108.785 66.98 108.721 66.9116 108.663 66.8601C108.626 66.8279 108.59 66.8026 108.579 66.793C108.527 66.748 108.428 66.6611 108.428 66.6611L108.303 66.5967C108.255 66.5549 108.223 66.4359 108.265 66.3882C108.396 66.2376 109.143 66.8006 109.272 66.9132C109.371 67.0001 109.335 67.1893 109.267 67.2664C109.049 67.5162 108.808 67.7467 108.586 68.0001C108.367 68.2499 108.193 68.4483 108.016 68.6953C108.019 68.7436 108.048 68.8143 108.074 68.8368L108.708 69.4765C108.781 69.5408 108.714 69.618 108.691 69.6437C108.627 69.7172 108.534 69.7268 108.457 69.6592L106.83 68.2341C106.778 68.189 106.769 68.0443 106.81 67.9966ZM109.501 66.1402C109.655 65.9639 109.915 65.9709 110.066 66.1028C110.216 66.2347 110.232 66.424 110.12 66.5525C109.969 66.7252 109.709 66.7182 109.532 66.5638C109.429 66.4737 109.391 66.2651 109.501 66.1402Z" fill="black"/>
<path d="M103.55 65.0049C103.64 64.909 103.882 65.1369 104.022 65.0879C104.253 64.8429 105.375 63.7534 105.606 63.5084C105.606 63.5084 105.72 63.3876 105.764 63.3415C105.764 63.3415 105.881 63.2172 105.901 63.1959C106.061 62.9771 105.629 62.7512 105.787 62.5843C105.857 62.5098 106.004 62.5539 106.075 62.6209C107.094 63.5827 107.946 64.6219 106.78 65.8577C106.438 66.2199 105.393 66.7442 104.91 66.43C104.763 66.3376 104.617 66.2071 104.479 66.0764C104.351 65.9557 104.226 65.8315 104.109 65.7209C104.038 65.6539 103.651 65.2886 103.577 65.2182C103.577 65.2182 103.503 65.0546 103.55 65.0049ZM104.386 65.3848C104.306 65.47 104.402 65.5881 104.481 65.6618C104.516 65.6953 104.548 65.7186 104.562 65.732C105.191 66.3252 105.935 66.0204 106.461 65.4628C106.964 64.9301 107.18 64.1674 106.601 63.6212C106.601 63.6212 106.331 63.3665 106.284 63.4162L106.126 63.5417C105.988 63.6873 105.39 64.2711 105.253 64.4167C105.233 64.438 104.953 64.6844 104.933 64.7057C104.933 64.7057 104.933 64.7057 104.91 64.7306C104.886 64.7554 104.774 64.9245 104.75 64.9494C104.683 65.0204 104.457 65.3102 104.386 65.3848Z" fill="black"/>
<path d="M151.173 98.4874C151.139 98.4828 151.046 98.4014 151.055 98.3385C151.077 98.1739 151.567 98.3043 151.65 97.9114C151.658 97.8485 151.703 97.5146 151.716 97.4178C151.761 97.0888 151.768 96.8188 151.778 96.4851C151.724 96.3744 151.662 96.3659 151.56 96.3521C151.429 96.3344 151.285 96.3839 151.154 96.3662L151.12 96.3616C151.125 96.3277 151.104 96.2264 151.108 96.1925C151.108 96.1925 151.108 96.1925 151.113 96.1586C151.144 95.9264 151.904 96.0291 151.972 96.0383C152.238 96.0743 152.083 96.4573 152.315 96.4887C152.417 96.5025 152.518 96.4817 152.599 96.3941C152.882 96.2649 153.133 96.1608 153.433 96.2014C153.597 96.2236 153.883 96.3313 153.852 96.5636C153.83 96.7281 153.656 96.7736 153.492 96.7513C153.361 96.7337 153.201 96.643 153.07 96.6253C152.775 96.5854 152.211 96.7457 152.167 97.0747L152.015 98.1973L152.103 98.3127C152.365 98.3777 152.66 98.4176 152.922 98.4875L152.946 98.5253C152.975 98.5637 153 98.6361 153 98.6361C152.983 98.7667 152.653 98.7222 152.586 98.713C152.489 98.7 152.426 98.6569 152.329 98.6438C152.131 98.617 151.928 98.624 151.729 98.5972C151.497 98.5658 151.395 98.5521 151.173 98.4874Z" fill="black"/>
<path d="M147.556 96.7451C147.607 96.4467 147.888 95.8212 148.21 95.7081L148.78 95.5336L149.473 95.6528C149.897 95.7256 150.138 96.4806 150.082 96.8078C150.037 97.0677 149.907 97.0454 149.671 97.0393C149.541 97.017 149.373 96.9832 149.19 96.9518C148.825 96.8889 148.399 96.8305 148.08 96.8698C148.046 96.864 147.99 96.9881 147.99 96.9881C147.906 97.479 148.469 97.7492 148.829 97.8113C149.19 97.8733 149.585 97.7381 149.912 97.7943C149.98 97.8059 150.003 97.8743 149.991 97.9416C149.946 98.2063 148.767 98.1722 148.57 98.1382C147.848 98.0141 147.432 97.4669 147.556 96.7451ZM148.171 96.3405C148.142 96.5089 148.531 96.6056 148.661 96.628C148.955 96.6784 149.225 96.6951 149.558 96.7176C149.637 96.6619 149.676 96.634 149.693 96.5377C149.726 96.3404 149.451 95.9561 149.258 95.923L148.763 95.8378C148.565 95.8038 148.204 96.148 148.171 96.3405Z" fill="black"/>
<path d="M144.35 93.5984C144.521 93.4308 144.959 93.4614 145.155 93.504C145.25 93.5248 145.399 93.6221 145.377 93.7223C145.314 94.0134 145.187 94.2956 145.131 94.5533C145.109 94.6534 145.041 94.8084 145.088 94.8887C145.122 94.896 145.188 94.9105 145.222 94.9178C145.417 94.9604 145.661 94.9435 145.852 94.9851C146.572 95.1421 146.85 95.8872 146.708 96.536C146.595 97.0561 146.194 97.1737 145.825 97.4681C145.541 97.5111 145.372 97.5091 145.114 97.453C144.947 97.4166 144.759 97.3406 144.563 97.298C144.468 97.2772 144.36 97.2887 144.265 97.2679C144.231 97.2607 144.136 97.2399 144.151 97.1731L144.825 94.0768C144.896 93.7524 144.395 93.8482 144.35 93.5984ZM144.677 96.6381C144.566 96.9886 144.95 97.1073 145.207 97.1634C145.794 97.2913 146.203 96.8358 146.316 96.3157C146.381 96.0199 146.249 95.6863 146.055 95.4742C145.907 95.372 145.745 95.3367 145.55 95.2941C144.929 95.1589 144.925 95.4979 144.798 96.0847C144.776 96.1849 144.69 96.5761 144.677 96.6381Z" fill="black"/>
<path d="M138.505 95.5691C138.524 95.5033 138.617 95.4229 138.658 95.4038C138.8 95.1292 138.884 94.7014 138.964 94.4145C138.991 94.3157 139.116 93.8689 139.143 93.7701C139.151 93.6352 138.758 93.6626 138.811 93.4698C138.877 93.2346 139.362 93.3494 139.527 93.3953C139.56 93.4045 139.67 93.501 139.702 93.5102C139.715 93.5188 139.729 93.5227 139.748 93.528C139.899 93.5699 140.109 93.4867 140.283 93.5352C140.443 93.5797 140.583 93.8263 140.775 93.88C141.001 93.9429 141.229 93.8696 141.455 93.9325C142.001 94.0845 141.928 94.5814 141.803 95.0329C141.723 95.3198 141.618 95.5694 141.538 95.8563L141.528 95.8892C141.519 95.9221 141.499 96.1242 141.489 96.1571C141.529 96.2695 141.755 96.3324 141.718 96.4641C141.687 96.577 141.548 96.5638 141.435 96.5324C141.356 96.5101 141.292 96.4824 141.264 96.4745C141.198 96.4562 141.005 96.4024 140.977 96.3946C140.911 96.3762 140.855 96.325 140.84 96.2499C141.169 96.068 141.218 95.5291 141.299 95.2375C141.326 95.1434 141.433 94.7577 141.461 94.6589C141.569 94.3798 141.403 94.2273 141.149 94.1566C141.022 94.1212 140.849 94.1083 140.776 94.2603C140.748 94.3591 140.582 94.8297 140.554 94.9285L140.528 95.0226C140.519 95.0555 140.493 95.1496 140.493 95.1496C140.465 95.2483 140.364 95.7373 140.337 95.8361C140.381 95.9142 140.523 96.0246 140.495 96.1234C140.469 96.2175 140.431 96.2426 140.333 96.215L139.82 96.0722C139.787 96.063 139.711 95.971 139.721 95.9381C139.728 95.9098 139.728 95.9098 139.728 95.9098C139.988 95.5969 140.096 95.3178 140.213 94.8992C140.302 94.5794 140.538 93.9862 140.058 93.8526C139.898 93.808 139.579 93.8256 139.525 94.0184L139.123 95.4624C139.069 95.6553 139.45 95.6548 139.396 95.8476C139.387 95.8806 139.307 95.9294 139.274 95.9202L138.663 95.7499C138.597 95.7315 138.488 95.6303 138.505 95.5691Z" fill="black"/>
<path d="M135.21 93.357C135.308 93.0703 135.683 92.4963 136.018 92.4348L136.608 92.3513L137.274 92.5771C137.681 92.7151 137.802 93.4986 137.696 93.813C137.611 94.0627 137.486 94.0204 137.253 93.9775C137.128 93.9352 136.968 93.8757 136.792 93.8161C136.441 93.6969 136.029 93.5728 135.708 93.5619C135.676 93.5509 135.601 93.6648 135.601 93.6648C135.441 94.1365 135.955 94.4912 136.302 94.6088C136.649 94.7264 137.06 94.6544 137.374 94.761C137.439 94.7829 137.451 94.854 137.429 94.9188C137.343 95.1731 136.184 94.9556 135.995 94.8913C135.301 94.6561 134.975 94.0507 135.21 93.357ZM135.881 93.0532C135.826 93.2151 136.195 93.3714 136.32 93.4137C136.602 93.5094 136.866 93.5679 137.192 93.6421C137.278 93.5993 137.322 93.5779 137.353 93.4855C137.417 93.2959 137.205 92.8732 137.02 92.8105L136.543 92.649C136.354 92.5847 135.943 92.8683 135.881 93.0532Z" fill="black"/>
<path d="M129.928 92.3902C129.953 92.3268 130.055 92.2572 130.098 92.2427C130.269 91.9855 130.4 91.5695 130.511 91.2932C130.549 91.198 130.722 90.7676 130.76 90.6725C130.782 90.5392 130.389 90.5232 130.463 90.3374C130.554 90.1109 131.024 90.2785 131.182 90.3422C131.214 90.3549 131.313 90.463 131.344 90.4758C131.356 90.4857 131.37 90.4912 131.388 90.4985C131.533 90.5568 131.752 90.4973 131.919 90.5646C132.073 90.6265 132.184 90.887 132.37 90.9616C132.588 91.049 132.822 91.0013 133.04 91.0887C133.565 91.2999 133.439 91.7857 133.264 92.2207C133.153 92.497 133.021 92.7335 132.91 93.0098L132.897 93.0416C132.884 93.0733 132.841 93.2718 132.829 93.3035C132.856 93.4196 133.073 93.507 133.022 93.6339C132.978 93.7426 132.842 93.7143 132.734 93.6706C132.657 93.6396 132.597 93.6051 132.57 93.5941C132.506 93.5686 132.321 93.494 132.293 93.4831C132.23 93.4576 132.179 93.4004 132.173 93.3242C132.521 93.1797 132.628 92.6494 132.741 92.3685C132.778 92.2779 132.927 91.9064 132.965 91.8113C133.104 91.5458 132.956 91.376 132.711 91.2777C132.589 91.2285 132.418 91.1965 132.329 91.3396C132.29 91.4348 132.073 91.8842 132.035 91.9793L131.998 92.0699C131.986 92.1016 131.949 92.1922 131.949 92.1922C131.911 92.2874 131.757 92.7623 131.719 92.8574C131.754 92.94 131.882 93.0653 131.844 93.1604C131.808 93.2511 131.768 93.2718 131.673 93.2336L131.179 93.0351C131.147 93.0224 131.082 92.9226 131.095 92.8908C131.106 92.8637 131.106 92.8637 131.106 92.8637C131.398 92.5812 131.536 92.3158 131.698 91.9126C131.822 91.6045 132.122 91.041 131.66 90.8553C131.506 90.7934 131.187 90.7756 131.112 90.9614L130.553 92.3523C130.479 92.538 130.857 92.5794 130.782 92.7652C130.769 92.7969 130.685 92.8367 130.653 92.8239L130.064 92.5872C130.001 92.5617 129.904 92.4491 129.928 92.3902Z" fill="black"/>
<path d="M126.897 89.8284C127.025 89.5541 127.461 89.025 127.801 89.0007L128.397 88.9829L129.034 89.2807C129.423 89.4627 129.457 90.2547 129.317 90.5555C129.205 90.7943 129.085 90.7385 128.859 90.6702C128.739 90.6144 128.586 90.5376 128.418 90.459C128.082 90.3018 127.687 90.1331 127.369 90.0868C127.338 90.0724 127.251 90.1773 127.251 90.1773C127.04 90.6285 127.512 91.0377 127.844 91.1928C128.175 91.3479 128.592 91.3216 128.893 91.4623C128.955 91.4912 128.959 91.5632 128.93 91.6251C128.816 91.8684 127.688 91.5245 127.507 91.4397C126.844 91.1295 126.587 90.4919 126.897 89.8284ZM127.596 89.6003C127.524 89.7551 127.874 89.9512 127.994 90.007C128.263 90.1332 128.519 90.2204 128.834 90.3301C128.925 90.2971 128.971 90.2806 129.012 90.1921C129.097 90.0108 128.932 89.5673 128.755 89.4846L128.3 89.2716C128.118 89.1868 127.679 89.4233 127.596 89.6003Z" fill="black"/>
<path d="M124.56 89.9005C124.53 89.885 124.47 89.7774 124.499 89.7209C124.574 89.5731 124.993 89.8588 125.202 89.5158C125.231 89.4593 125.384 89.1594 125.429 89.0725C125.58 88.7769 125.676 88.5245 125.797 88.2134C125.783 88.091 125.727 88.062 125.635 88.0153C125.518 87.9552 125.365 87.9538 125.248 87.8937L125.217 87.8781C125.233 87.8477 125.247 87.7452 125.263 87.7148C125.263 87.7148 125.263 87.7148 125.278 87.6843C125.385 87.4757 126.067 87.8251 126.128 87.8562C126.367 87.9786 126.094 88.2883 126.302 88.3951C126.393 88.4418 126.496 88.4559 126.601 88.4001C126.912 88.3725 127.183 88.3577 127.452 88.4956C127.6 88.5713 127.834 88.7679 127.727 88.9765C127.651 89.1243 127.472 89.1095 127.325 89.0338C127.207 88.9737 127.086 88.835 126.969 88.7749C126.704 88.6392 126.119 88.603 125.968 88.8985L125.451 89.9069L125.496 90.0449C125.722 90.1933 125.987 90.3291 126.21 90.4819L126.221 90.5257C126.235 90.5717 126.235 90.6481 126.235 90.6481C126.175 90.7655 125.879 90.6141 125.818 90.583C125.731 90.5385 125.686 90.4769 125.599 90.4324C125.421 90.3412 125.227 90.2803 125.049 90.1891C124.84 90.0823 124.749 90.0356 124.56 89.9005Z" fill="black"/>
<path d="M120.244 86.4361L120.309 86.3946C120.309 86.3946 120.343 86.3357 120.358 86.3104C120.393 86.2515 120.381 86.2047 120.416 86.1459L120.477 86.1085L120.817 85.5322C120.951 85.3051 120.522 85.2448 120.539 85.0227C120.754 84.9172 121.07 85.1032 121.242 85.2048C121.267 85.2197 121.291 85.2279 121.312 85.2403C121.346 85.2601 121.366 85.2834 121.353 85.3438C121.336 85.3733 121.251 85.5163 121.234 85.5457C121.08 85.8065 120.917 86.0163 120.763 86.2771C120.612 86.5337 120.255 87.1395 120.688 87.3948L121.176 87.6824C121.43 87.7131 121.62 87.7853 121.771 87.5287L122.381 86.4939C122.532 86.2374 122.086 86.2065 122.205 86.0046C122.306 85.8321 122.765 86.1024 122.879 86.1693C122.992 86.2363 122.903 86.4555 122.87 86.5102C122.684 86.8257 122.484 87.0986 122.315 87.3846C122.266 87.4688 122.095 87.759 122.08 87.7843L122.008 87.9741C122.108 88.0729 122.318 88.2363 122.216 88.4087C122.164 88.4971 121.656 88.311 121.597 88.2762C121.513 88.2266 121.492 88.061 121.378 87.9941C121.121 87.8428 120.788 87.8789 120.532 87.7277C120.098 87.4723 120.009 86.8357 120.244 86.4361Z" fill="black"/>
<path d="M116.921 83.9409C117.339 83.2987 118.146 83.1076 118.813 83.5422C119.43 83.9449 119.595 84.7287 119.177 85.3709C118.774 85.9885 117.888 86.1223 117.275 85.7223C116.661 85.3223 116.537 84.53 116.921 83.9409ZM117.303 84.1496C117.01 84.5996 117.01 85.1535 117.485 85.4628C117.959 85.7721 118.542 85.674 118.841 85.1522C119.138 84.6345 119.05 84.0991 118.547 83.7711C118.044 83.4432 117.613 83.6751 117.303 84.1496Z" fill="black"/>
<path d="M113.036 83.9158C113.115 83.8046 113.259 83.8297 113.339 83.8865C113.45 83.966 113.513 84.0466 113.62 84.1233C113.945 84.3562 114.59 83.9166 114.763 83.6743C114.783 83.6465 114.803 83.6187 114.803 83.6187L114.882 83.1051C114.771 82.8575 114.945 82.328 115.002 82.0806C115.011 82.0091 115.072 81.6384 115.082 81.5669C115.082 81.3989 114.768 81.2586 114.864 81.1235C114.952 81.0004 115.187 81.1503 115.338 81.2583C115.386 81.2924 115.43 81.3236 115.449 81.3378C115.505 81.3776 115.882 81.6474 115.814 81.8023C115.765 81.9294 115.566 81.7454 115.526 81.801L115.35 82.0473C115.35 82.0473 115.271 82.5609 115.238 82.7834C115.193 82.9554 115.113 83.1858 115.275 83.3022C115.438 83.4187 116.387 82.6625 116.444 82.5831C116.58 82.3924 116.186 82.3145 116.322 82.1238C116.39 82.0285 116.688 82.2171 116.894 82.3648C116.978 82.4244 117.046 82.4795 117.078 82.5022C117.106 82.5221 117.269 82.6385 117.292 82.6556C117.3 82.7033 117.347 82.8145 117.279 82.8503C117.107 82.9734 116.905 82.7445 116.685 82.8755C116.081 83.2663 115.533 83.5708 114.925 83.91C114.394 84.1907 113.776 84.7693 113.153 84.3234C113.069 84.2638 112.939 84.0509 113.036 83.9158Z" fill="black"/>
<path d="M109.804 78.5409C110.12 78.1557 110.866 77.7763 111.354 78.1756L112.052 78.7482C112.101 78.7884 112.214 78.7044 112.255 78.6553C112.298 78.6024 112.333 78.5052 112.377 78.4523C112.442 78.373 112.508 78.3456 112.573 78.2663C112.762 78.0359 112.32 77.8438 112.447 77.689C112.574 77.5342 113.123 77.8579 113.176 77.9012C113.255 77.9662 113.264 78.0556 113.199 78.1349L111.32 80.4272L111.198 80.6302C111.133 80.7095 111.481 80.8623 111.354 81.0171C111.227 81.172 110.992 80.9351 110.847 80.9044C110.801 80.8604 110.756 80.8232 110.71 80.7861C110.438 80.5632 110.162 80.4311 109.875 80.1958C109.848 80.1742 109.693 80.0473 109.667 80.0256C109.294 79.5873 109.488 78.9261 109.804 78.5409ZM110.184 78.7635C109.781 79.2544 109.854 79.7434 110.345 80.1457C110.836 80.5481 111.134 80.0224 111.475 79.6069C111.79 79.2217 111.933 78.9474 111.495 78.5883C111.031 78.2076 110.543 78.3254 110.184 78.7635Z" fill="black"/>
<path d="M146.958 108.326C146.924 108.321 146.832 108.24 146.84 108.177C146.862 108.013 147.352 108.143 147.435 107.75C147.443 107.687 147.489 107.353 147.502 107.256C147.546 106.927 147.553 106.657 147.564 106.324C147.51 106.213 147.447 106.204 147.345 106.191C147.215 106.173 147.07 106.222 146.939 106.205L146.905 106.2C146.91 106.166 146.889 106.065 146.894 106.031C146.894 106.031 146.894 106.031 146.898 105.997C146.93 105.765 147.69 105.868 147.757 105.877C148.023 105.913 147.868 106.296 148.1 106.327C148.202 106.341 148.303 106.32 148.384 106.233C148.668 106.104 148.918 105.999 149.218 106.04C149.383 106.062 149.669 106.17 149.637 106.402C149.615 106.567 149.442 106.612 149.277 106.59C149.146 106.572 148.986 106.482 148.856 106.464C148.56 106.424 147.997 106.584 147.952 106.913L147.8 108.036L147.888 108.151C148.15 108.216 148.446 108.256 148.707 108.326L148.732 108.364C148.761 108.402 148.786 108.475 148.786 108.475C148.768 108.605 148.439 108.561 148.371 108.552C148.274 108.539 148.211 108.496 148.114 108.482C147.916 108.456 147.713 108.463 147.515 108.436C147.282 108.404 147.181 108.391 146.958 108.326Z" fill="black"/>
<path d="M143.342 106.584C143.393 106.286 143.674 105.66 143.996 105.547L144.566 105.372L145.259 105.492C145.683 105.564 145.924 106.319 145.868 106.647C145.823 106.907 145.693 106.884 145.457 106.878C145.327 106.856 145.159 106.822 144.976 106.791C144.611 106.728 144.185 106.669 143.866 106.709C143.832 106.703 143.776 106.827 143.776 106.827C143.692 107.318 144.255 107.588 144.615 107.65C144.976 107.712 145.371 107.577 145.698 107.633C145.766 107.645 145.789 107.713 145.777 107.781C145.732 108.045 144.553 108.011 144.356 107.977C143.634 107.853 143.218 107.306 143.342 106.584ZM143.957 106.179C143.928 106.348 144.317 106.444 144.447 106.467C144.741 106.517 145.01 106.534 145.343 106.557C145.422 106.501 145.462 106.473 145.478 106.377C145.512 106.179 145.237 105.795 145.044 105.762L144.548 105.677C144.351 105.643 143.99 105.987 143.957 106.179Z" fill="black"/>
<path d="M140.136 103.437C140.307 103.27 140.745 103.3 140.941 103.343C141.036 103.364 141.185 103.461 141.163 103.561C141.1 103.852 140.973 104.134 140.917 104.392C140.895 104.492 140.826 104.647 140.874 104.728C140.907 104.735 140.974 104.749 141.007 104.757C141.203 104.799 141.447 104.782 141.637 104.824C142.358 104.981 142.635 105.726 142.494 106.375C142.38 106.895 141.98 107.013 141.611 107.307C141.327 107.35 141.157 107.348 140.9 107.292C140.733 107.255 140.544 107.179 140.349 107.137C140.253 107.116 140.146 107.128 140.051 107.107C140.017 107.1 139.922 107.079 139.936 107.012L140.611 103.916C140.682 103.591 140.181 103.687 140.136 103.437ZM140.463 106.477C140.351 106.828 140.735 106.946 140.993 107.002C141.58 107.13 141.989 106.675 142.102 106.155C142.167 105.859 142.034 105.525 141.841 105.313C141.693 105.211 141.531 105.176 141.335 105.133C140.715 104.998 140.711 105.337 140.583 105.924C140.561 106.024 140.476 106.415 140.463 106.477Z" fill="black"/>
<path d="M134.291 105.408C134.309 105.342 134.403 105.261 134.444 105.242C134.586 104.968 134.67 104.54 134.75 104.253C134.777 104.154 134.902 103.707 134.929 103.609C134.936 103.474 134.543 103.501 134.597 103.308C134.663 103.073 135.148 103.188 135.312 103.234C135.345 103.243 135.455 103.34 135.488 103.349C135.501 103.357 135.515 103.361 135.534 103.367C135.684 103.409 135.895 103.325 136.069 103.374C136.229 103.418 136.368 103.665 136.561 103.719C136.787 103.782 137.015 103.708 137.241 103.771C137.787 103.923 137.714 104.42 137.588 104.872C137.508 105.158 137.403 105.408 137.323 105.695L137.314 105.728C137.305 105.761 137.284 105.963 137.275 105.996C137.315 106.108 137.54 106.171 137.504 106.303C137.472 106.416 137.334 106.402 137.221 106.371C137.141 106.349 137.078 106.321 137.05 106.313C136.984 106.295 136.791 106.241 136.763 106.233C136.697 106.215 136.64 106.164 136.626 106.089C136.955 105.907 137.004 105.368 137.085 105.076C137.111 104.982 137.219 104.596 137.246 104.498C137.355 104.218 137.189 104.066 136.935 103.995C136.808 103.96 136.634 103.947 136.562 104.099C136.534 104.198 136.367 104.668 136.34 104.767L136.314 104.861C136.305 104.894 136.278 104.988 136.278 104.988C136.251 105.087 136.15 105.576 136.123 105.675C136.167 105.753 136.308 105.863 136.281 105.962C136.255 106.056 136.217 106.081 136.118 106.054L135.606 105.911C135.573 105.902 135.497 105.81 135.506 105.777C135.514 105.748 135.514 105.748 135.514 105.748C135.774 105.436 135.882 105.156 135.998 104.738C136.087 104.418 136.324 103.825 135.844 103.691C135.684 103.647 135.365 103.664 135.311 103.857L134.909 105.301C134.855 105.494 135.235 105.493 135.182 105.686C135.173 105.719 135.093 105.768 135.06 105.759L134.449 105.588C134.383 105.57 134.274 105.469 134.291 105.408Z" fill="black"/>
<path d="M130.996 103.196C131.093 102.909 131.468 102.335 131.804 102.273L132.394 102.19L133.06 102.416C133.467 102.554 133.588 103.337 133.481 103.652C133.397 103.901 133.272 103.859 133.039 103.816C132.914 103.774 132.754 103.714 132.578 103.655C132.227 103.536 131.815 103.411 131.494 103.401C131.461 103.39 131.387 103.503 131.387 103.503C131.227 103.975 131.741 104.33 132.087 104.447C132.434 104.565 132.845 104.493 133.16 104.6C133.225 104.622 133.237 104.693 133.215 104.757C133.128 105.012 131.97 104.794 131.78 104.73C131.087 104.495 130.761 103.889 130.996 103.196ZM131.666 102.892C131.611 103.054 131.981 103.21 132.106 103.252C132.388 103.348 132.652 103.406 132.977 103.481C133.064 103.438 133.107 103.417 133.139 103.324C133.203 103.134 132.99 102.712 132.806 102.649L132.329 102.488C132.14 102.423 131.729 102.707 131.666 102.892Z" fill="black"/>
<path d="M125.713 102.229C125.739 102.165 125.84 102.096 125.883 102.081C126.055 101.824 126.185 101.408 126.296 101.132C126.334 101.037 126.507 100.606 126.546 100.511C126.568 100.378 126.174 100.362 126.249 100.176C126.34 99.9495 126.809 100.117 126.968 100.181C126.999 100.194 127.098 100.302 127.13 100.314C127.142 100.324 127.155 100.33 127.173 100.337C127.318 100.395 127.537 100.336 127.705 100.403C127.859 100.465 127.97 100.726 128.155 100.8C128.373 100.888 128.608 100.84 128.825 100.927C129.351 101.139 129.224 101.624 129.049 102.059C128.938 102.336 128.806 102.572 128.695 102.848L128.683 102.88C128.67 102.912 128.627 103.11 128.614 103.142C128.641 103.258 128.859 103.346 128.808 103.472C128.764 103.581 128.628 103.553 128.519 103.509C128.442 103.478 128.382 103.444 128.355 103.433C128.292 103.407 128.106 103.333 128.079 103.322C128.015 103.296 127.965 103.239 127.958 103.163C128.306 103.018 128.414 102.488 128.527 102.207C128.563 102.117 128.712 101.745 128.751 101.65C128.889 101.384 128.741 101.215 128.497 101.116C128.374 101.067 128.203 101.035 128.114 101.178C128.076 101.273 127.858 101.723 127.82 101.818L127.784 101.909C127.771 101.94 127.735 102.031 127.735 102.031C127.696 102.126 127.542 102.601 127.504 102.696C127.539 102.779 127.668 102.904 127.63 102.999C127.593 103.09 127.553 103.11 127.458 103.072L126.964 102.874C126.933 102.861 126.867 102.761 126.88 102.729C126.891 102.702 126.891 102.702 126.891 102.702C127.184 102.42 127.322 102.154 127.484 101.751C127.608 101.443 127.908 100.88 127.446 100.694C127.292 100.632 126.973 100.614 126.898 100.8L126.339 102.191C126.264 102.377 126.642 102.418 126.568 102.604C126.555 102.636 126.47 102.675 126.439 102.663L125.85 102.426C125.786 102.4 125.689 102.288 125.713 102.229Z" fill="black"/>
<path d="M122.683 99.6672C122.811 99.393 123.247 98.8638 123.587 98.8396L124.183 98.8217L124.82 99.1195C125.209 99.3015 125.243 100.094 125.103 100.394C124.991 100.633 124.871 100.577 124.645 100.509C124.525 100.453 124.372 100.376 124.204 100.298C123.868 100.141 123.473 99.9719 123.155 99.9257C123.124 99.9112 123.037 100.016 123.037 100.016C122.826 100.467 123.298 100.877 123.63 101.032C123.961 101.187 124.378 101.16 124.679 101.301C124.74 101.33 124.745 101.402 124.716 101.464C124.602 101.707 123.474 101.363 123.293 101.279C122.63 100.968 122.373 100.331 122.683 99.6672ZM123.382 99.4391C123.31 99.594 123.66 99.7901 123.78 99.8459C124.049 99.9721 124.305 100.059 124.62 100.169C124.711 100.136 124.757 100.119 124.798 100.031C124.883 99.8497 124.718 99.4062 124.541 99.3235L124.086 99.1105C123.904 99.0257 123.465 99.2622 123.382 99.4391Z" fill="black"/>
<path d="M120.346 99.7394C120.316 99.7238 120.256 99.6163 120.284 99.5598C120.36 99.412 120.779 99.6977 120.987 99.3546C121.016 99.2981 121.17 98.9983 121.214 98.9113C121.366 98.6158 121.462 98.3634 121.583 98.0523C121.569 97.9298 121.512 97.9009 121.421 97.8542C121.304 97.7941 121.151 97.7926 121.033 97.7326L121.003 97.717C121.019 97.6866 121.033 97.5841 121.048 97.5536C121.048 97.5536 121.048 97.5536 121.064 97.5232C121.171 97.3146 121.853 97.664 121.914 97.6951C122.153 97.8175 121.879 98.1272 122.088 98.234C122.179 98.2807 122.282 98.2948 122.387 98.239C122.697 98.2114 122.968 98.1965 123.238 98.3345C123.385 98.4102 123.619 98.6067 123.513 98.8154C123.437 98.9631 123.258 98.9483 123.11 98.8727C122.993 98.8126 122.872 98.6739 122.755 98.6138C122.489 98.478 121.905 98.4419 121.753 98.7374L121.237 99.7457L121.282 99.8837C121.507 100.032 121.772 100.168 121.996 100.321L122.006 100.365C122.021 100.411 122.02 100.487 122.02 100.487C121.96 100.604 121.665 100.453 121.604 100.422C121.517 100.377 121.472 100.316 121.385 100.271C121.207 100.18 121.013 100.119 120.835 100.028C120.626 99.9212 120.535 99.8744 120.346 99.7394Z" fill="black"/>
<path d="M116.03 96.2747L116.094 96.2332C116.094 96.2332 116.129 96.1743 116.144 96.1491C116.178 96.0902 116.166 96.0434 116.201 95.9845L116.263 95.9471L116.602 95.3709C116.736 95.1437 116.307 95.0834 116.325 94.8614C116.54 94.7558 116.855 94.9418 117.028 95.0435C117.053 95.0583 117.076 95.0665 117.097 95.0789C117.131 95.0988 117.151 95.122 117.139 95.1824C117.121 95.2119 117.037 95.3549 117.019 95.3844C116.866 95.6452 116.702 95.8549 116.549 96.1157C116.397 96.3723 116.04 96.9781 116.474 97.2335L116.962 97.5211C117.216 97.5517 117.405 97.624 117.557 97.3674L118.167 96.3326C118.318 96.076 117.871 96.0451 117.99 95.8432C118.092 95.6708 118.55 95.941 118.664 96.008C118.778 96.0749 118.688 96.2942 118.656 96.3488C118.47 96.6643 118.269 96.9372 118.101 97.2233C118.051 97.3074 117.88 97.5976 117.865 97.6229L117.793 97.8127C117.893 97.9116 118.103 98.0749 118.002 98.2474C117.949 98.3357 117.441 98.1496 117.382 98.1149C117.298 98.0653 117.277 97.8996 117.163 97.8327C116.907 97.6814 116.574 97.7175 116.317 97.5663C115.884 97.3109 115.794 96.6743 116.03 96.2747Z" fill="black"/>
<path d="M112.706 93.7796C113.125 93.1374 113.932 92.9462 114.598 93.3809C115.216 93.7835 115.381 94.5673 114.962 95.2095C114.56 95.8272 113.674 95.9609 113.061 95.5609C112.447 95.1609 112.322 94.3686 112.706 93.7796ZM113.089 93.9882C112.796 94.4382 112.796 94.9921 113.271 95.3014C113.745 95.6107 114.328 95.5126 114.627 94.9908C114.924 94.4731 114.836 93.9377 114.332 93.6098C113.829 93.2818 113.398 93.5138 113.089 93.9882Z" fill="black"/>
<path d="M108.821 93.7547C108.901 93.6435 109.045 93.6685 109.124 93.7253C109.236 93.8049 109.298 93.8855 109.405 93.9622C109.731 94.1951 110.375 93.7555 110.549 93.5132C110.568 93.4854 110.588 93.4576 110.588 93.4576L110.668 92.9439C110.556 92.6964 110.731 92.1669 110.788 91.9194C110.797 91.8479 110.858 91.4773 110.867 91.4058C110.867 91.2378 110.553 91.0974 110.65 90.9624C110.738 90.8392 110.973 90.9892 111.124 91.0971C111.171 91.1312 111.215 91.1625 111.235 91.1767C111.29 91.2164 111.668 91.4862 111.599 91.6412C111.55 91.7683 111.352 91.5843 111.312 91.6399L111.136 91.8861C111.136 91.8861 111.057 92.3998 111.024 92.6223C110.979 92.7942 110.898 93.0246 111.061 93.1411C111.224 93.2575 112.172 92.5014 112.229 92.4219C112.366 92.2313 111.971 92.1533 112.107 91.9627C112.176 91.8674 112.473 92.056 112.68 92.2036C112.763 92.2633 112.832 92.3184 112.863 92.3411C112.891 92.361 113.054 92.4774 113.078 92.4945C113.086 92.5421 113.132 92.6534 113.065 92.6891C112.893 92.8122 112.69 92.5834 112.47 92.7144C111.867 93.1052 111.319 93.4097 110.71 93.7488C110.179 94.0295 109.562 94.6082 108.938 94.1623C108.855 94.1027 108.725 93.8897 108.821 93.7547Z" fill="black"/>
<path d="M105.59 88.3797C105.905 87.9945 106.652 87.6152 107.139 88.0145L107.838 88.5871C107.887 88.6273 108 88.5432 108.04 88.4941C108.083 88.4413 108.119 88.3441 108.162 88.2912C108.227 88.2119 108.294 88.1845 108.359 88.1051C108.548 87.8748 108.105 87.6827 108.232 87.5279C108.359 87.373 108.908 87.6968 108.961 87.7401C109.04 87.8051 109.049 87.8944 108.984 87.9737L107.105 90.2661L106.983 90.469C106.918 90.5483 107.267 90.7012 107.14 90.856C107.013 91.0108 106.778 90.7739 106.632 90.7432C106.586 90.6992 106.541 90.6621 106.496 90.6249C106.224 90.4021 105.947 90.2699 105.66 90.0347C105.634 90.013 105.479 89.8861 105.452 89.8645C105.079 89.4261 105.274 88.765 105.59 88.3797ZM105.969 88.6023C105.567 89.0933 105.639 89.5822 106.13 89.9846C106.621 90.387 106.92 89.8612 107.26 89.4458C107.576 89.0606 107.719 88.7862 107.28 88.4272C106.816 88.0465 106.328 88.1643 105.969 88.6023Z" fill="black"/>
<path d="M103.681 88.1126C103.729 88.1094 103.825 88.103 103.874 88.0998C104.546 88.6435 104.492 88.5571 105.087 87.8775C105.284 87.6535 105.457 87.4032 105.628 87.1566C105.655 87.096 105.592 87.0275 105.533 86.9761C105.496 86.9439 105.46 86.9186 105.449 86.909C105.397 86.8639 105.298 86.7771 105.298 86.7771L105.173 86.7127C105.125 86.6709 105.093 86.5519 105.135 86.5041C105.267 86.3535 106.013 86.9166 106.142 87.0292C106.241 87.116 106.205 87.3052 106.138 87.3824C105.919 87.6322 105.678 87.8626 105.456 88.1161C105.237 88.3659 105.064 88.5642 104.886 88.8113C104.889 88.8595 104.918 88.9303 104.944 88.9528L105.578 89.5925C105.652 89.6568 105.584 89.7339 105.561 89.7597C105.497 89.8331 105.404 89.8427 105.327 89.7752L103.7 88.35C103.649 88.305 103.639 88.1603 103.681 88.1126ZM106.371 86.2562C106.525 86.0799 106.785 86.0869 106.936 86.2188C107.087 86.3507 107.103 86.5399 106.99 86.6685C106.839 86.8411 106.579 86.8341 106.403 86.6797C106.3 86.5896 106.262 86.3811 106.371 86.2562Z" fill="black"/>
<path d="M100.42 85.1206C100.51 85.0247 100.752 85.2526 100.892 85.2036C101.123 84.9586 102.246 83.8691 102.477 83.6241C102.477 83.6241 102.591 83.5033 102.634 83.4572C102.634 83.4572 102.752 83.3329 102.772 83.3116C102.931 83.0928 102.5 82.867 102.657 82.7001C102.728 82.6255 102.874 82.6696 102.945 82.7366C103.964 83.6984 104.816 84.7376 103.65 85.9734C103.308 86.3357 102.263 86.8599 101.781 86.5457C101.633 86.4533 101.488 86.3228 101.349 86.1921C101.221 86.0714 101.097 85.9472 100.98 85.8366C100.909 85.7696 100.521 85.4043 100.447 85.334C100.447 85.334 100.373 85.1703 100.42 85.1206ZM101.257 85.5005C101.176 85.5857 101.273 85.7038 101.351 85.7775C101.386 85.811 101.418 85.8343 101.432 85.8477C102.061 86.4409 102.805 86.1361 103.331 85.5785C103.834 85.0459 104.05 84.2832 103.471 83.7369C103.471 83.7369 103.201 83.4822 103.155 83.5319L102.996 83.6574C102.858 83.803 102.261 84.3868 102.123 84.5324C102.103 84.5537 101.823 84.8001 101.803 84.8214C101.803 84.8214 101.803 84.8214 101.78 84.8463C101.756 84.8712 101.644 85.0402 101.62 85.0651C101.553 85.1361 101.327 85.4259 101.257 85.5005Z" fill="black"/>
<path d="M129.794 55.6828C129.815 55.5875 129.89 55.1238 130.114 55.1742C130.28 55.2118 130.071 55.9855 130.947 56.183C131.371 56.2786 131.798 56.2046 131.915 55.6854C132.158 54.6089 130.032 54.7805 130.303 53.5801C130.465 52.8609 131.198 52.6507 131.846 52.7967C131.922 52.8139 132.057 52.8344 132.205 52.8677C132.505 52.9353 132.848 53.0576 132.789 53.3196C132.767 53.4149 132.727 53.4407 132.705 53.536C132.683 53.636 132.701 53.7102 132.679 53.8055C132.65 53.9341 132.518 54.0793 132.378 54.0778C132.006 53.6186 132.586 53.3089 131.61 53.0889C131.219 53.0008 130.9 53.0639 130.798 53.5165C130.541 54.6549 132.684 54.387 132.368 55.7874C132.251 56.3066 131.685 56.5544 131.206 56.5466C131.144 56.5326 130.882 56.4736 130.815 56.4585C130.72 56.4371 130.425 56.3705 130.425 56.3705C130.396 56.3641 130.24 56.299 130.207 56.2915C130.174 56.284 130.039 56.2836 130.005 56.276C130.005 56.276 129.972 56.2685 129.939 56.261C129.677 56.202 129.75 55.8781 129.794 55.6828Z" fill="black"/>
<path d="M125.553 55.3668C125.634 55.1894 125.936 55.1774 126.034 54.9645C126.046 54.9378 126.074 54.8757 126.089 54.8447C125.997 54.7275 126.053 54.6077 126.108 54.4879C126.163 54.3682 126.356 54.3444 126.49 54.3684C126.692 54.5738 126.651 54.8133 126.555 55.0218C126.498 55.146 126.415 55.3279 126.285 55.3758L125.678 55.5747C125.598 55.5379 125.508 55.4644 125.553 55.3668Z" fill="black"/>
<path d="M123.849 53.4392C123.82 53.422 123.765 53.3114 123.797 53.2565C123.881 53.113 124.284 53.4206 124.51 53.0891C124.542 53.0342 124.711 52.743 124.76 52.6585C124.927 52.3715 125.037 52.1246 125.174 51.8203C125.167 51.6973 125.112 51.6654 125.023 51.6139C124.909 51.5476 124.757 51.538 124.643 51.4718L124.613 51.4546C124.63 51.4251 124.65 51.3235 124.667 51.2939C124.667 51.2939 124.667 51.2939 124.684 51.2644C124.802 51.0617 125.465 51.447 125.524 51.4813C125.756 51.6163 125.466 51.9109 125.669 52.0287C125.757 52.0802 125.859 52.0997 125.967 52.0497C126.278 52.0386 126.55 52.0382 126.812 52.1903C126.955 52.2738 127.178 52.4826 127.06 52.6852C126.977 52.8287 126.799 52.8044 126.656 52.721C126.542 52.6547 126.428 52.5097 126.314 52.4435C126.057 52.2938 125.475 52.2265 125.308 52.5136L124.738 53.493L124.776 53.6331C124.993 53.7934 125.251 53.9431 125.466 54.1076L125.474 54.1519C125.486 54.1986 125.481 54.2749 125.481 54.2749C125.415 54.3889 125.128 54.222 125.069 54.1877C124.984 54.1386 124.943 54.0747 124.858 54.0256C124.685 53.925 124.495 53.854 124.322 53.7534C124.119 53.6356 124.03 53.584 123.849 53.4392Z" fill="black"/>
<path d="M120.929 50.5617C121.277 50.1153 122.119 50.3944 122.488 50.6829C122.538 50.7219 122.574 50.7871 122.628 50.8292C122.678 50.8683 122.962 51.0525 123.046 50.9448L123.331 50.5792C123.475 50.3944 123.133 50.127 123.052 50.0639C122.633 49.7363 122.344 50.1058 122.159 49.9615C122.056 49.8804 122 49.7933 122.102 49.6625C122.39 49.293 123.039 49.7559 123.304 49.9633C123.354 50.0023 123.539 50.1466 123.566 50.1676C123.812 50.4469 123.772 50.7128 123.547 51.0014C123.384 51.2092 123.175 51.4298 123.013 51.6376C122.868 51.8223 122.747 52.0251 122.705 52.246C122.728 52.264 122.762 52.2842 122.796 52.3113C122.877 52.3744 122.958 52.4619 122.885 52.5542C122.864 52.5812 122.822 52.6351 122.795 52.614C122.599 52.5409 122.426 52.4926 122.268 52.3693C122.137 52.2672 122.141 52.1032 122.006 51.998C121.772 51.8147 121.479 51.7533 121.244 51.57C120.929 51.3235 120.64 50.9311 120.929 50.5617ZM121.271 50.8291C121.067 51.0908 121.383 51.3373 121.594 51.5026C121.937 51.77 122.301 51.8435 122.565 51.5048C122.586 51.4779 122.682 51.2991 122.703 51.2721C122.594 51.143 122.49 51.0619 122.355 50.9567C122.039 50.7103 121.578 50.4366 121.271 50.8291Z" fill="black"/>
<path d="M118.621 47.3803C118.844 47.1749 119.447 46.8499 119.771 46.9561L120.33 47.1649L120.807 47.6814C121.098 47.9971 120.83 48.7432 120.586 48.9684C120.393 49.1473 120.303 49.0505 120.119 48.9015C120.03 48.8046 119.917 48.6758 119.791 48.5394C119.54 48.2668 119.237 47.9611 118.961 47.798C118.937 47.7729 118.817 47.8373 118.817 47.8373C118.451 48.1752 118.733 48.7323 118.982 49.0014C119.23 49.2704 119.626 49.4036 119.851 49.6475C119.897 49.6978 119.874 49.7659 119.824 49.8123C119.626 49.9945 118.713 49.2498 118.577 49.1028C118.08 48.5647 118.083 47.8772 118.621 47.3803ZM119.355 47.4336C119.23 47.5496 119.48 47.8636 119.569 47.9605C119.771 48.1793 119.975 48.3567 120.225 48.5774C120.322 48.5813 120.37 48.5832 120.442 48.5169C120.589 48.3811 120.604 47.9083 120.472 47.7649L120.131 47.3954C119.995 47.2483 119.499 47.3011 119.355 47.4336Z" fill="black"/>
<path d="M115.069 43.8882C115.181 43.8189 115.356 44.1013 115.504 44.0902C115.79 43.913 117.155 43.1496 117.442 42.9724C117.442 42.9724 117.583 42.8851 117.637 42.8517C117.637 42.8517 117.783 42.7619 117.808 42.7465C118.018 42.5762 117.659 42.2468 117.855 42.1261C117.942 42.0722 118.072 42.1525 118.123 42.2356C118.86 43.4276 119.416 44.6513 117.97 45.5448C117.547 45.8067 116.402 46.0438 116.017 45.6159C115.898 45.4885 115.791 45.325 115.691 45.163C115.598 45.0135 115.51 44.8614 115.425 44.7243C115.374 44.6413 115.094 44.1886 115.04 44.1013C115.04 44.1013 115.011 43.9242 115.069 43.8882ZM115.779 44.4709C115.68 44.5325 115.743 44.6715 115.799 44.7629C115.825 44.8045 115.85 44.8351 115.86 44.8517C116.314 45.5869 117.112 45.4842 117.764 45.0811C118.387 44.6959 118.792 44.0147 118.374 43.3377C118.374 43.3377 118.179 43.0221 118.121 43.058L117.935 43.1384C117.765 43.2436 117.036 43.6536 116.866 43.7589C116.841 43.7743 116.508 43.9403 116.483 43.9557C116.483 43.9557 116.483 43.9557 116.454 43.9737C116.425 43.9917 116.272 44.126 116.243 44.144C116.16 44.1954 115.867 44.417 115.779 44.4709Z" fill="black"/>
<path d="M137.664 122.575C138.845 127.979 138.807 126.703 136.524 128.636C134.24 130.569 133.713 131.799 133.187 133.029C132.66 134.259 132.28 138.021 131.783 139.705C128.521 138.549 126.718 139.212 123.526 141.99L122.736 143.835C118.015 143.785 115.621 140.06 114.654 138.918C113.688 137.776 118.605 129.694 118.605 129.694C117.835 128.535 122.441 116.251 125.366 117.308C128.291 118.364 133.62 118.242 137.664 122.575Z" fill="#FFB69E"/>
<path d="M95.6775 126.793L89.2772 141.719C89.2772 141.719 96.4042 145.815 97.5836 145.277C98.763 144.738 106.862 147.494 106.862 147.494L109.945 142.668C110.874 140.211 111.785 139.017 110.756 135.637C109.383 136.559 110.495 134.709 111.909 132.124C112.455 130.99 112.52 129.854 112.45 127.436C112.45 127.436 115.732 126.568 115.425 125.981C115.119 125.394 114.348 124.867 114.649 123.78L116.291 123.346C115.711 121.702 115.612 120.826 116.092 119.389C115.769 118.221 115.447 117.579 114.558 116.453L114.503 116.426C113.143 115.753 112.364 115.367 110.5 115.12C108.903 114.983 108.038 115.125 106.623 116.279C105.228 117.37 105.006 118.138 104.568 119.496C104.129 120.855 103.883 124.623 103.883 124.623C99.6836 124.548 97.855 124.998 95.6775 126.793Z" fill="#7B7B7B"/>
<path d="M131.402 134.817L125.014 149.748C125.014 149.748 117.132 147.416 116.708 146.19C116.284 144.965 108.702 141.004 108.702 141.004L110.067 135.443C111.205 133.075 111.441 131.592 114.597 130.005C114.877 131.635 115.449 129.554 116.344 126.746C116.788 125.569 117.566 124.738 119.365 123.121C119.365 123.121 117.728 120.146 118.365 119.963C119.002 119.78 119.915 119.974 120.493 119.006L119.675 117.518C121.265 116.803 121.968 116.27 122.677 114.932C123.745 114.36 124.432 114.15 125.86 114.016L125.918 114.037C127.343 114.557 128.16 114.855 129.625 116.034C130.826 117.095 131.32 117.819 131.461 119.64C131.634 121.403 131.231 122.093 130.55 123.348C129.87 124.602 127.312 127.381 127.312 127.381C130.264 130.368 131.2 132.002 131.402 134.817Z" fill="#7B7B7B"/>
<path d="M109.471 107.843C110.652 113.247 110.614 111.971 108.331 113.904C106.047 115.837 105.521 117.067 104.994 118.297C104.467 119.527 104.088 123.289 103.59 124.973C100.328 123.817 98.5255 124.48 95.3335 127.258L94.5433 129.103C89.8218 129.053 87.4277 125.328 86.4612 124.186C85.4947 123.044 90.412 114.962 90.412 114.962C89.6424 113.803 94.248 101.519 97.1729 102.576C100.098 103.633 105.427 103.51 109.471 107.843Z" fill="#B8FBC3"/>
<path d="M115.904 15.4384C139.74 15.1066 154.453 21.4028 182.9 43.2236C143.359 47.9944 120.619 51.3354 115.904 15.4384Z" fill="url(#paint0_linear_117_1626)"/>
<path d="M77.7932 138.049C92.7354 155.735 105.215 147.255 119.675 154.115" stroke="#332108" stroke-width="3" stroke-linecap="round"/>
<path d="M73.6403 142.712C92.9981 159.929 104.596 147.826 121.314 152.805" stroke="#51360D" stroke-width="3" stroke-linecap="round"/>
<g filter="url(#filter0_ii_117_1626)">
<path d="M0.238175 330.23C0.106634 374.412 35.8171 410.336 79.9996 410.468L119.999 410.587C164.182 410.718 200.106 375.008 200.237 330.825L200.72 168.595C200.732 164.729 197.607 161.586 193.741 161.574L7.74198 161.021C3.876 161.009 0.732675 164.134 0.721165 168L0.238175 330.23Z" fill="url(#paint1_linear_117_1626)"/>
</g>
<g filter="url(#filter1_f_117_1626)">
<path fill-rule="evenodd" clip-rule="evenodd" d="M66.9685 395.044C39.3544 394.962 17.0354 372.51 17.1176 344.896L17.5504 199.512L29.0938 199.546L28.6897 335.282C28.6075 362.896 50.9265 385.348 78.5406 385.43L145.275 385.629C154.762 385.657 163.64 383.041 171.211 378.475C162.02 388.8 148.614 395.287 133.703 395.243L66.9685 395.044Z" fill="#FFEE84"/>
</g>
<defs>
<filter id="filter0_ii_117_1626" x="-9.49551" y="151.287" width="219.949" height="269.033" filterUnits="userSpaceOnUse" color-interpolation-filters="sRGB">
<feFlood flood-opacity="0" result="BackgroundImageFix"/>
<feBlend mode="normal" in="SourceGraphic" in2="BackgroundImageFix" result="shape"/>
<feColorMatrix in="SourceAlpha" type="matrix" values="0 0 0 0 0 0 0 0 0 0 0 0 0 0 0 0 0 0 127 0" result="hardAlpha"/>
<feOffset dx="-9.73333" dy="9.73333"/>
<feGaussianBlur stdDeviation="4.86667"/>
<feComposite in2="hardAlpha" operator="arithmetic" k2="-1" k3="1"/>
<feColorMatrix type="matrix" values="0 0 0 0 1 0 0 0 0 1 0 0 0 0 1 0 0 0 0.1 0"/>
<feBlend mode="normal" in2="shape" result="effect1_innerShadow_117_1626"/>
<feColorMatrix in="SourceAlpha" type="matrix" values="0 0 0 0 0 0 0 0 0 0 0 0 0 0 0 0 0 0 127 0" result="hardAlpha"/>
<feOffset dx="9.73333" dy="-9.73333"/>
<feGaussianBlur stdDeviation="8.7"/>
<feComposite in2="hardAlpha" operator="arithmetic" k2="-1" k3="1"/>
<feColorMatrix type="matrix" values="0 0 0 0 0.964939 0 0 0 0 0.57027 0 0 0 0 0.136992 0 0 0 1 0"/>
<feBlend mode="normal" in2="effect1_innerShadow_117_1626" result="effect2_innerShadow_117_1626"/>
</filter>
<filter id="filter1_f_117_1626" x="0.41737" y="182.812" width="187.494" height="229.131" filterUnits="userSpaceOnUse" color-interpolation-filters="sRGB">
<feFlood flood-opacity="0" result="BackgroundImageFix"/>
<feBlend mode="normal" in="SourceGraphic" in2="BackgroundImageFix" result="shape"/>
<feGaussianBlur stdDeviation="8.35" result="effect1_foregroundBlur_117_1626"/>
</filter>
<linearGradient id="paint0_linear_117_1626" x1="139.863" y1="52.5474" x2="154.153" y2="19.1792" gradientUnits="userSpaceOnUse">
<stop/>
<stop offset="1" stop-color="#C7C4C0"/>
<stop offset="1"/>
</linearGradient>
<linearGradient id="paint1_linear_117_1626" x1="60.0845" y1="381.947" x2="233.225" y2="102.461" gradientUnits="userSpaceOnUse">
<stop stop-color="#FCD900"/>
<stop offset="0.484375" stop-color="#FCB125"/>
<stop offset="1" stop-color="#E8630A"/>
</linearGradient>
</defs>
</svg>
