<svg width="109" height="20" viewBox="0 0 109 20" fill="none" xmlns="http://www.w3.org/2000/svg">
<path d="M24 15.875V1H36.75V3.125H38.875V9.5H34.625V11.625H36.75V13.75H38.875V15.875H32.5V13.75H30.375V11.625H28.25V15.875H24ZM28.25 9.5H32.5V7.375H34.625V3.125H28.25V9.5ZM41 15.875V1H55.875V3.125H45.25V7.375H53.75V9.5H45.25V13.75H55.875V15.875H41ZM64.375 15.875V3.125H60.125V1H72.875V3.125H68.625V15.875H64.375ZM75 15.875V1H87.75V3.125H89.875V9.5H85.625V11.625H87.75V13.75H89.875V15.875H83.5V13.75H81.375V11.625H79.25V15.875H75ZM79.25 9.5H83.5V7.375H85.625V3.125H79.25V9.5ZM94.125 15.875V13.75H92V3.125H94.125V1H104.75V3.125H106.875V13.75H104.75V15.875H94.125ZM96.25 13.75H102.625V3.125H96.25V13.75Z" fill="#09C805"/>
<path d="M0 17.1429L0 20H2.85714V17.1429H5.71429V14.2857H8.57143V11.4286H11.4286V8.57143H8.57143V5.71429H5.71429V2.85714H2.85714L2.85714 -4.76837e-07H0L0 2.85714H2.85714V5.71429H5.71429V8.57143H8.57143V11.4286H5.71429L5.71429 14.2857H2.85714L2.85714 17.1429H0Z" fill="#09C805"/>
</svg>
