<svg width="83" height="15" viewBox="0 0 83 15" fill="none" xmlns="http://www.w3.org/2000/svg">
<path d="M0 14.875V0H12.75V2.125H14.875V8.5H10.625V10.625H12.75V12.75H14.875V14.875H8.5V12.75H6.375V10.625H4.25V14.875H0ZM4.25 8.5H8.5V6.375H10.625V2.125H4.25V8.5ZM17 14.875V0H31.875V2.125H21.25V6.375H29.75V8.5H21.25V12.75H31.875V14.875H17ZM40.375 14.875V2.125H36.125V0H48.875V2.125H44.625V14.875H40.375ZM51 14.875V0H63.75V2.125H65.875V8.5H61.625V10.625H63.75V12.75H65.875V14.875H59.5V12.75H57.375V10.625H55.25V14.875H51ZM55.25 8.5H59.5V6.375H61.625V2.125H55.25V8.5ZM70.125 14.875V12.75H68V2.125H70.125V0H80.75V2.125H82.875V12.75H80.75V14.875H70.125ZM72.25 12.75H78.625V2.125H72.25V12.75Z" fill="#09C805"/>
</svg>
