<svg width="90" height="49" viewBox="0 0 90 49" fill="none" xmlns="http://www.w3.org/2000/svg">
<rect x="0.5" y="0.5" width="89" height="48" fill="#0000FF" stroke="white"/>
<path d="M5 8H6V6H7V10.5H6V8.5H5V10.5H4V6H5V8ZM10.5 8.5H9V10H11V10.5H8V6H11V6.5H9V8H10.5V8.5ZM12 6H13V10H15V10.5H12V6ZM16 6H17V10H19V10.5H16V6ZM20.5 6H22.5V6.5H23V10H22.5V10.5H20.5V10H20V6.5H20.5V6ZM22 10V6.5H21V10H22ZM30.5 10.5H29V9.5H30.5V10.5ZM34.5 10.5H33V9.5H34.5V10.5ZM38.5 10.5H37V9.5H38.5V10.5ZM46.5 8H45V7H46.5V8ZM46.5 10.5H45V9.5H46.5V10.5ZM49 10H49.5V7.5H49V6.5H48.5V6H49.5V6.5H50V7.5H50.5V10H50V11H49.5V11.5H48.5V11H49V10ZM4 24H5V28H7V28.5H4V24ZM10.5 26.5H9V28H11V28.5H8V24H11V24.5H9V26H10.5V26.5ZM15 24.5H14V28.5H13V24.5H12V24H15V24.5ZM17 24H18.5V25.5H18V26H17V25.5H17.5V25H17V24ZM21 28H22V27H21.5V26.5H21V26H20.5V25.5H20V24.5H20.5V24H22.5V24.5H23V25H22V24.5H21V25.5H21.5V26H22V26.5H22.5V27H23V28H22.5V28.5H20.5V28H20V27.5H21V28ZM30.5 24.5H31V25.5H30V24.5H29V28H30V27H29.5V26.5H31V28.5H28.5V28H28V24.5H28.5V24H30.5V24.5ZM32.5 24H34.5V24.5H35V28H34.5V28.5H32.5V28H32V24.5H32.5V24ZM34 28V24.5H33V28H34ZM43 26H42.5V26.5H43V28H42.5V28.5H40V24H42.5V24.5H43V26ZM42 26V24.5H41V26H42ZM42 28V26.5H41V28H42ZM44.5 24.5H45V24H46V24.5H46.5V25H47V28.5H46V27H45V28.5H44V25H44.5V24.5ZM46 26.5V25H45V26.5H46ZM48.5 24H50.5V24.5H51V25.5H50V24.5H49V28H50V27H51V28H50.5V28.5H48.5V28H48V24.5H48.5V24ZM52 24H53V26H53.5V25H54V24H55V25H54.5V26H54V26.5H54.5V27.5H55V28.5H54V27.5H53.5V26.5H53V28.5H52V24ZM63 24.5H62V28.5H61V24.5H60V24H63V24.5ZM64.5 24H66.5V24.5H67V28H66.5V28.5H64.5V28H64V24.5H64.5V24ZM66 28V24.5H65V28H66ZM75 24.5H74V28.5H73V24.5H72V24H75V24.5ZM77 26H78V24H79V28.5H78V26.5H77V28.5H76V24H77V26ZM82.5 26.5H81V28H83V28.5H80V24H83V24.5H81V26H82.5V26.5ZM5 32V33H5.5V33.5H5V36.5H4V32H5ZM6.5 33V32H7.5V36.5H6.5V33.5H6V33H6.5ZM6 35H5.5V33.5H6V35ZM9 36H10V35H9.5V34.5H9V34H8.5V33.5H8V32.5H8.5V32H10.5V32.5H11V33H10V32.5H9V33.5H9.5V34H10V34.5H10.5V35H11V36H10.5V36.5H8.5V36H8V35.5H9V36ZM15 34.5H12V34H15V34.5ZM18 32.5H18.5V33H19V35.5H18.5V36H18V36.5H16V32H18V32.5ZM18 35.5V33H17.5V32.5H17V36H17.5V35.5H18ZM20.5 32H22.5V32.5H23V36H22.5V36.5H20.5V36H20V32.5H20.5V32ZM22 36V32.5H21V36H22ZM25 36H26V35H25.5V34.5H25V34H24.5V33.5H24V32.5H24.5V32H26.5V32.5H27V33H26V32.5H25V33.5H25.5V34H26V34.5H26.5V35H27V36H26.5V36.5H24.5V36H24V35.5H25V36ZM34.5 34.5H33V36H35V36.5H32V32H35V32.5H33V34H34.5V34.5ZM36 32H38.5V32.5H39V34H38.5V35H39V36.5H38V35H37.5V34.5H37V36.5H36V32ZM38 34V32.5H37V34H38ZM40.5 32.5H41V32H42V32.5H42.5V33H43V36.5H42V35H41V36.5H40V33H40.5V32.5ZM42 34.5V33H41V34.5H42Z" fill="white"/>
</svg>
