<svg width="43" height="24" viewBox="0 0 43 24" fill="none" xmlns="http://www.w3.org/2000/svg">
<path d="M15.272 0.912H18.488V23.136H15.272V0.912ZM8.72 3.216H11.888C11.888 10.008 9.584 15.576 1.688 19.392L0.032 16.848C6.416 13.776 8.72 9.744 8.72 3.792V3.216ZM1.208 3.216H10.232V5.736H1.208V3.216ZM24.6061 1.728H27.7501V3.888H36.4141V1.728H39.5821V10.776H24.6061V1.728ZM27.7501 6.336V8.256H36.4141V6.336H27.7501ZM22.0381 12.648H42.1261V15.192H22.0381V12.648ZM30.4621 9.432H33.6541V13.704H30.4621V9.432ZM24.4621 20.208H39.8701V22.752H24.4621V20.208ZM24.4621 16.488H27.6541V21.144H24.4621V16.488Z" fill="#363636"/>
</svg>
