<svg width="35" height="35" viewBox="0 0 35 35" fill="none" xmlns="http://www.w3.org/2000/svg">
<g filter="url(#filter0_i_77_1400)">
<path d="M22.284 19.84H26.136V31.828H22.284V19.84ZM20.376 10.336V12.892H28.44V10.336H20.376ZM16.56 7.06H32.436V16.168H16.56V7.06ZM14.724 17.752H33.984V34.168H29.844V21.208H18.72V34.204H14.724V17.752ZM17.028 23.62H32.004V26.824H17.028V23.62ZM17.064 29.308H32.04V32.764H17.064V29.308ZM14.544 1.948H34.128V5.584H14.544V1.948ZM1.764 7.096H12.528V10.984H1.764V7.096ZM6.084 0.471998H10.296V8.932H6.084V0.471998ZM10.692 15.52C11.7 16.168 14.832 18.94 15.588 19.66L13.068 23.116C11.952 21.568 9.504 18.868 8.28 17.572L10.692 15.52ZM10.944 7.096H11.808L12.528 6.952L14.904 8.464C12.42 15.448 7.416 21.82 2.448 25.24C2.088 24.088 1.044 21.928 0.396 21.136C4.896 18.436 9.18 13.144 10.944 7.888V7.096ZM6.084 19.408L10.296 14.332V34.24H6.084V19.408Z" fill="#FFD913" fill-opacity="0.8"/>
</g>
<defs>
<filter id="filter0_i_77_1400" x="0.395996" y="0.471924" width="33.7319" height="37.7681" filterUnits="userSpaceOnUse" color-interpolation-filters="sRGB">
<feFlood flood-opacity="0" result="BackgroundImageFix"/>
<feBlend mode="normal" in="SourceGraphic" in2="BackgroundImageFix" result="shape"/>
<feColorMatrix in="SourceAlpha" type="matrix" values="0 0 0 0 0 0 0 0 0 0 0 0 0 0 0 0 0 0 127 0" result="hardAlpha"/>
<feOffset dy="4"/>
<feGaussianBlur stdDeviation="2.2"/>
<feComposite in2="hardAlpha" operator="arithmetic" k2="-1" k3="1"/>
<feColorMatrix type="matrix" values="0 0 0 0 0 0 0 0 0 0 0 0 0 0 0 0 0 0 0.25 0"/>
<feBlend mode="normal" in2="shape" result="effect1_innerShadow_77_1400"/>
</filter>
</defs>
</svg>
